<?xml version="1.0" standalone="no"?>
<!DOCTYPE svg PUBLIC "-//W3C//DTD SVG 20010904//EN"
 "http://www.w3.org/TR/2001/REC-SVG-20010904/DTD/svg10.dtd">
<svg version="1.0" xmlns="http://www.w3.org/2000/svg"
 width="628.000000pt" height="855.000000pt" viewBox="0 0 628.000000 855.000000"
 preserveAspectRatio="xMidYMid meet">
<metadata>
Created by potrace 1.16, written by Peter Selinger 2001-2019
</metadata>
<g transform="translate(0.000000,855.000000) scale(0.100000,-0.100000)"
fill="#000000" stroke="none">
<path d="M3062 7793 c-10 -4 -10 -8 0 -21 12 -14 10 -14 -10 -3 -19 10 -34 10
-75 0 -29 -7 -56 -13 -60 -14 -4 0 -12 -7 -17 -15 -6 -9 -10 -10 -10 -3 0 7
-7 10 -15 7 -8 -4 -13 -9 -10 -13 2 -4 -2 -8 -10 -8 -11 0 -12 3 -3 14 8 10 8
17 1 24 -7 7 -12 2 -17 -15 -3 -14 -11 -26 -16 -26 -6 0 -10 -8 -10 -17 1 -17
1 -17 11 0 7 12 15 15 27 8 9 -5 21 -9 25 -9 5 0 12 -4 15 -8 4 -4 1 -4 -6 0
-7 4 -15 1 -18 -8 -3 -9 -11 -13 -16 -10 -6 4 -5 10 3 15 11 7 11 9 -1 9 -9 0
-21 -5 -28 -12 -9 -9 -13 -7 -18 5 -3 9 -10 14 -15 11 -5 -3 -6 -10 -3 -16 4
-7 2 -8 -5 -4 -13 8 -91 -49 -91 -67 0 -7 9 -1 20 13 11 14 19 21 18 15 -2 -5
-1 -10 2 -11 3 0 16 -6 29 -13 21 -12 23 -11 18 2 -3 9 1 18 9 21 9 3 12 1 9
-4 -3 -6 -1 -10 4 -10 6 0 11 4 11 10 0 6 3 9 8 8 4 0 25 7 47 17 22 10 44 18
48 17 5 -2 6 2 2 8 -4 6 4 10 19 10 14 0 28 5 31 10 3 6 12 10 18 10 7 0 6 -4
-3 -11 -12 -8 -11 -9 5 -5 39 11 201 8 245 -4 25 -7 53 -12 62 -12 9 0 22 -6
28 -14 7 -7 16 -11 21 -8 5 3 9 0 9 -7 0 -8 5 -7 17 2 11 10 14 10 9 2 -13
-23 12 -14 28 9 15 21 16 21 16 3 0 -18 0 -18 13 0 9 11 16 14 21 7 8 -13 -9
-24 -37 -26 -11 -1 -22 -7 -25 -14 -5 -16 30 -11 54 8 10 8 15 10 11 3 -5 -7
0 -9 15 -5 20 5 21 6 3 12 -13 5 -15 9 -7 14 19 11 4 25 -20 21 -13 -3 -44 7
-71 21 -27 14 -46 19 -41 12 5 -10 4 -11 -7 0 -7 6 -17 12 -22 12 -4 0 -5 -6
-1 -12 4 -7 -2 -4 -14 6 -24 21 -28 36 -11 36 5 0 8 -4 4 -9 -3 -5 -1 -12 4
-15 5 -4 12 -2 16 4 6 10 -51 50 -70 50 -5 -1 1 -7 15 -15 l25 -15 -22 -6
c-13 -3 -23 -11 -23 -16 0 -5 -5 -6 -10 -3 -6 4 -8 10 -5 15 3 5 -6 12 -21 16
-29 7 -52 -14 -31 -29 8 -6 8 -7 -3 -4 -8 2 -14 12 -12 21 2 13 -3 16 -24 12
-16 -3 -32 0 -38 8 -6 8 -17 12 -24 9z"/>
<path d="M2665 7610 c-3 -6 -11 -8 -16 -5 -5 3 -6 -1 -3 -9 3 -9 -6 -21 -25
-32 -17 -10 -31 -22 -31 -27 0 -4 -6 -5 -12 -1 -10 6 -10 4 0 -8 10 -13 10
-18 1 -24 -8 -5 -9 -3 -4 6 5 8 4 11 -3 7 -5 -4 -8 -16 -5 -27 3 -12 -1 -22
-11 -26 -9 -3 -13 -10 -10 -15 3 -5 9 -7 14 -4 4 3 14 -3 21 -12 12 -15 12
-16 -1 -8 -38 23 -57 12 -51 -27 0 -5 -3 -8 -7 -8 -13 0 -46 -116 -38 -135 3
-9 2 -13 -4 -10 -6 4 -10 -19 -10 -60 0 -47 3 -64 12 -59 7 5 8 3 2 -7 -13
-21 -14 -70 -2 -63 7 4 8 2 4 -5 -4 -6 -2 -18 4 -26 10 -12 10 -15 1 -15 -9 0
-9 -4 1 -15 29 -32 34 -41 34 -62 0 -13 -4 -23 -9 -23 -5 0 -7 9 -4 20 3 11 2
22 -3 25 -4 3 -10 -4 -13 -15 -4 -14 3 -26 23 -40 15 -11 31 -16 35 -12 5 4 5
2 1 -5 -3 -6 -2 -14 4 -18 5 -3 10 -11 10 -16 0 -6 -11 3 -25 18 l-26 28 22
-37 c11 -21 26 -35 32 -31 6 3 7 1 3 -5 -10 -17 13 -53 32 -50 10 2 17 -3 17
-12 0 -11 -10 -14 -35 -13 l-35 2 35 -13 c19 -7 33 -15 30 -19 -3 -3 -2 -9 3
-13 4 -4 7 2 7 14 0 11 5 24 10 27 6 4 8 10 5 15 -3 5 -2 11 3 14 4 2 8 -6 8
-19 0 -13 -4 -21 -8 -19 -4 3 -8 1 -8 -5 0 -6 16 -25 36 -43 20 -18 47 -43 60
-54 12 -12 25 -19 28 -16 3 3 6 0 6 -7 0 -7 5 -9 12 -5 6 4 8 3 5 -4 -4 -5
-16 -8 -26 -5 -22 5 -61 -13 -61 -28 0 -6 4 -8 8 -5 5 3 9 -1 9 -9 0 -11 -3
-12 -14 -3 -10 8 -17 8 -26 -2 -10 -10 -9 -11 3 -5 12 7 13 6 3 -6 -10 -12
-10 -18 0 -29 6 -8 1 -6 -12 5 -14 11 -21 14 -17 8 4 -8 2 -13 -6 -13 -15 0
-58 -43 -58 -57 0 -6 -9 -18 -20 -28 -11 -10 -20 -27 -20 -38 0 -12 -9 -31
-21 -43 -23 -25 -17 -49 10 -39 12 5 13 3 5 -5 -9 -9 -18 -9 -35 0 l-24 11 22
-19 c19 -17 20 -21 7 -26 -10 -4 -13 -2 -8 7 5 9 4 9 -5 1 -7 -6 -17 -42 -23
-80 -10 -66 -25 -101 -36 -89 -7 7 -42 -25 -42 -39 0 -6 7 0 16 12 8 12 20 20
25 16 5 -3 15 -1 22 5 10 8 12 2 9 -24 -2 -19 -8 -35 -13 -35 -5 0 -9 -5 -9
-11 0 -6 6 -9 14 -6 10 4 12 0 9 -14 -3 -10 0 -26 7 -34 22 -27 -5 -41 -40
-20 -13 7 -13 6 -2 -7 7 -9 22 -15 33 -13 15 3 18 -1 15 -20 -3 -15 2 -29 12
-37 15 -11 15 -11 5 3 -10 12 -10 16 0 16 9 0 12 -14 12 -43 -1 -24 2 -41 6
-38 4 2 11 -6 15 -18 6 -20 7 -21 20 -4 7 10 10 25 7 33 -5 12 -1 11 15 -3 26
-22 27 -25 7 -18 -8 4 -15 2 -15 -4 0 -6 14 -15 30 -21 17 -5 30 -12 30 -15 0
-3 -11 -1 -25 4 -14 5 -31 7 -39 4 -12 -5 -10 -13 11 -45 20 -31 30 -38 47
-34 15 5 17 4 8 -3 -11 -7 -8 -15 14 -35 27 -25 29 -26 48 -9 20 17 20 17 0
-10 -10 -15 -22 -28 -26 -28 -5 0 -8 -6 -8 -14 0 -17 -11 -25 -40 -31 -13 -2
-18 0 -14 7 3 5 -20 -8 -52 -30 -32 -22 -62 -38 -66 -36 -4 3 -5 -2 -2 -10 3
-9 10 -16 16 -16 5 0 7 4 3 9 -3 5 -1 12 4 15 13 8 7 -22 -7 -36 -9 -9 -12 -9
-12 0 0 7 -7 12 -15 12 -18 0 -19 -12 -4 -27 8 -8 8 -13 0 -18 -6 -3 -10 -1
-9 6 2 6 -3 14 -11 17 -8 3 -11 0 -7 -7 4 -6 3 -11 -3 -11 -6 0 -17 14 -26 30
-9 17 -18 30 -21 30 -3 0 -2 -5 2 -11 5 -8 1 -8 -14 0 -11 6 -22 8 -25 3 -2
-4 -2 0 1 8 2 8 5 20 5 27 0 7 4 10 9 7 4 -3 8 0 8 5 0 6 -4 11 -10 11 -5 0
-10 7 -10 15 0 8 -5 15 -11 15 -6 0 -9 7 -5 15 3 8 2 14 -2 14 -4 -1 -14 -1
-22 1 -11 1 -9 4 5 11 l20 9 -20 -3 c-13 -2 -19 -10 -18 -22 1 -17 -1 -16 -18
5 -16 22 -24 21 -20 -3 1 -5 -3 -6 -9 -2 -5 3 -10 2 -10 -3 0 -13 25 -33 33
-27 4 3 5 2 3 -1 -13 -18 102 -153 118 -137 3 3 6 1 6 -5 0 -6 -9 -14 -21 -17
-13 -4 -18 -12 -15 -22 3 -8 9 -26 12 -39 8 -30 35 -32 31 -3 -1 12 4 23 11
25 7 1 8 0 2 -3 -5 -2 -10 -9 -10 -14 0 -5 9 -4 19 3 11 6 17 18 13 26 -3 10
-1 13 5 9 16 -10 45 22 38 41 -4 12 -3 13 10 2 11 -9 15 -9 15 -1 0 6 8 15 18
18 9 4 25 15 34 25 9 11 20 19 25 19 17 -1 61 24 57 31 -3 4 3 8 12 8 9 0 30
14 46 32 15 17 28 27 28 20 0 -6 -8 -16 -17 -22 -15 -9 -14 -10 7 -4 34 9 36
12 22 37 l-13 22 19 -22 c13 -14 23 -18 33 -13 13 8 6 25 -10 25 -13 0 -88 71
-120 114 -14 19 -20 21 -26 11 -6 -9 -4 -11 6 -5 11 6 12 5 2 -5 -17 -18 -27
-6 -15 16 8 14 4 26 -18 54 -15 19 -28 40 -29 45 -4 28 -14 45 -24 39 -9 -5
-9 -4 0 6 8 9 7 21 -4 49 -16 37 -20 207 -7 261 4 14 7 35 8 48 0 12 4 22 9
22 4 0 7 4 7 9 0 5 4 20 9 33 5 13 9 28 11 33 1 6 8 14 16 18 8 4 14 14 14 21
0 7 14 27 30 44 17 18 30 36 30 41 0 5 16 19 35 31 21 13 32 26 28 33 -4 6 -8
22 -9 35 -3 23 -2 23 11 6 10 -14 10 -21 2 -26 -9 -6 -9 -8 0 -8 6 0 15 5 18
10 4 6 11 8 16 5 5 -4 9 -1 9 4 0 6 3 10 8 9 4 0 15 2 24 6 16 7 16 10 1 34
l-17 27 22 -22 c21 -22 59 -22 45 0 -4 6 0 8 10 4 38 -14 13 3 -45 32 -67 34
-72 36 -63 21 3 -6 -1 -7 -10 -4 -11 5 -14 2 -9 -12 5 -16 4 -16 -5 -4 -7 11
-7 19 3 29 12 11 6 22 -42 67 -52 49 -94 72 -76 42 6 -10 5 -10 -8 -1 -8 7
-17 10 -20 7 -3 -2 -5 6 -5 20 0 16 4 23 13 19 7 -2 10 -11 7 -19 -4 -10 0
-12 11 -8 15 6 15 9 -5 30 -13 14 -24 31 -25 40 -1 9 -11 22 -21 31 -10 8 -12
11 -5 8 12 -6 12 -3 1 16 -7 13 -13 28 -14 32 0 4 -7 12 -15 17 -13 9 -13 10
0 10 11 1 10 4 -4 15 -11 8 -14 15 -8 15 7 0 12 5 12 10 0 6 -3 9 -7 9 -33 -5
-42 10 -20 33 9 9 13 41 12 105 -1 55 3 89 8 86 6 -4 7 5 3 21 -5 20 -3 26 5
21 8 -5 9 -1 4 15 -5 15 -4 20 4 16 6 -4 11 -1 11 8 0 8 -6 17 -12 19 -7 3 -4
6 6 6 11 1 17 4 13 7 -3 3 1 13 9 22 8 10 15 22 15 27 1 6 14 25 30 44 26 32
27 35 12 58 -13 20 -18 21 -32 11 -14 -12 -15 -11 -2 5 8 9 16 15 19 12 3 -3
12 1 21 7 13 10 14 10 4 -1 -13 -15 -7 -41 11 -41 16 0 98 85 90 93 -9 9 -53
-22 -50 -36 1 -7 1 -9 -1 -5 -2 4 -12 4 -21 1 -14 -5 -14 -3 1 9 17 12 17 16
4 27 -11 8 -17 9 -22 1z"/>
<path d="M3000 7596 c-232 -50 -389 -281 -351 -516 26 -162 144 -305 295 -356
l46 -16 0 -89 c0 -77 -3 -90 -17 -95 -174 -56 -295 -195 -324 -371 -31 -189
71 -387 241 -470 36 -18 73 -35 83 -37 15 -5 18 -15 15 -63 l-3 -57 -61 -12
c-189 -39 -393 -178 -494 -338 -19 -30 -39 -55 -45 -55 -5 0 -29 8 -51 18 -36
16 -41 23 -37 44 8 43 -15 157 -46 223 -79 169 -277 281 -458 258 -61 -7 -67
-12 -48 -38 14 -18 15 -18 57 2 24 11 44 16 46 11 2 -5 11 -9 20 -9 10 0 26
-7 36 -15 11 -8 35 -15 54 -15 18 0 42 -5 53 -10 21 -12 26 -40 7 -40 -7 0 -5
-5 5 -11 10 -6 27 -9 38 -6 25 7 32 -6 14 -29 -19 -25 -19 -34 0 -34 24 0 17
-20 -10 -30 -29 -11 -29 -8 -11 -51 25 -62 28 -116 6 -152 -17 -27 -19 -43
-13 -102 3 -38 10 -73 16 -76 5 -4 15 -29 23 -55 7 -27 16 -58 19 -70 10 -31
-18 -53 -66 -52 -22 0 -43 -2 -46 -6 -4 -3 3 -6 15 -6 25 0 34 -12 26 -35 -9
-23 -46 -15 -60 13 -6 13 -16 28 -22 34 -15 15 -74 -15 -128 -64 l-47 -43 5
47 c5 41 3 47 -18 56 -27 13 -96 4 -91 -12 2 -6 14 -10 25 -8 29 4 41 -26 18
-44 -33 -23 -76 8 -76 56 0 14 -5 31 -12 38 -12 12 -21 202 -9 202 4 0 8 7 8
15 0 8 -4 15 -9 15 -33 0 43 87 98 112 53 23 96 77 82 102 -6 10 -7 31 -4 47
7 35 1 37 -19 5 -12 -18 -13 -30 -6 -49 8 -21 7 -28 -6 -35 -26 -15 -54 -3
-48 22 3 11 1 28 -5 36 -9 13 -12 12 -25 -4 -8 -11 -15 -25 -15 -32 0 -14 -33
-24 -60 -17 -28 7 -25 24 10 58 16 15 32 42 35 59 4 17 18 50 31 73 13 23 27
63 31 89 6 45 6 46 -18 39 -55 -17 -128 -63 -180 -116 l-56 -56 -83 33 c-109
44 -142 44 -186 0 -27 -27 -34 -42 -34 -74 0 -62 33 -93 139 -133 l89 -34 4
-85 c7 -141 78 -268 194 -345 187 -124 457 -91 595 73 l32 39 46 -18 c38 -14
46 -22 44 -41 -14 -157 -14 -211 -3 -278 19 -115 21 -108 -40 -136 l-55 -25
-47 44 c-143 133 -357 164 -528 77 -71 -36 -157 -126 -196 -206 -33 -67 -38
-84 -42 -175 l-5 -100 -81 -38 c-88 -41 -106 -62 -106 -127 0 -28 8 -44 34
-70 43 -43 73 -44 171 -3 l74 32 56 -51 c267 -245 691 -100 755 258 7 36 9 85
6 110 l-6 45 60 27 59 26 39 -52 c119 -156 280 -262 460 -305 l77 -18 3 -72
c2 -61 0 -72 -15 -77 -66 -22 -148 -72 -195 -119 -226 -225 -156 -605 135
-735 l77 -35 0 -72 c0 -39 3 -78 6 -87 4 -11 -2 -17 -23 -22 -108 -26 -229
-127 -281 -234 -86 -178 -54 -385 82 -523 220 -223 594 -161 733 121 38 75 38
77 38 196 0 115 -2 124 -31 186 -57 120 -143 200 -255 241 -52 19 -60 25 -55
43 3 12 6 52 6 89 0 55 3 69 18 73 122 40 223 127 280 243 37 74 37 77 37 195
0 114 -2 125 -31 186 -42 90 -118 169 -203 214 -38 20 -76 36 -85 36 -13 0
-16 13 -16 80 0 80 0 80 26 80 44 0 203 58 275 101 88 52 195 151 245 226 21
32 41 62 45 67 4 4 41 -5 83 -20 l76 -29 0 -45 c0 -109 53 -232 135 -315 171
-171 463 -173 636 -4 l49 48 62 -25 c75 -29 103 -30 144 -5 41 25 60 78 44
125 -14 44 -33 60 -102 86 l-58 21 0 68 c0 186 -93 337 -259 419 -74 37 -76
37 -196 37 -119 0 -122 0 -196 -37 -52 -26 -93 -56 -134 -98 l-58 -62 -61 22
c-34 12 -65 25 -69 29 -4 4 -3 48 3 97 9 84 3 190 -16 281 -6 31 -5 33 51 58
l57 25 51 -46 c263 -236 662 -118 752 223 9 32 15 87 14 122 l-2 63 69 30 c97
42 119 66 119 128 0 40 -5 55 -26 75 -41 42 -87 43 -174 5 l-74 -32 -53 47
c-81 73 -179 116 -280 122 -276 17 -488 -184 -488 -463 l0 -72 -49 -21 c-27
-11 -54 -21 -60 -21 -5 0 -25 21 -44 48 -75 101 -204 205 -315 254 -60 26
-170 58 -199 58 -21 0 -23 4 -23 60 0 49 3 62 18 66 119 39 231 137 285 251
31 65 32 74 32 189 0 119 0 121 -38 196 -54 111 -145 191 -269 237 -28 10 -28
12 -28 98 l0 88 75 34 c102 46 174 116 222 217 32 67 38 90 41 167 12 235
-125 419 -350 472 -74 17 -123 18 -198 1z m215 -106 l30 -8 -30 -3 c-16 -1
-48 -1 -71 0 -44 3 -74 -17 -74 -47 0 -12 4 -9 13 8 14 28 65 40 78 19 6 -10
10 -10 23 0 8 7 27 11 43 9 22 -2 31 -11 40 -38 7 -20 12 -27 12 -16 1 11 4
17 7 13 4 -3 3 -18 0 -34 -5 -18 -10 -23 -15 -14 -6 10 -10 9 -14 -3 -4 -9 -1
-15 5 -13 25 5 39 -46 33 -116 -6 -82 -23 -117 -81 -177 -41 -42 -43 -48 -35
-78 6 -20 6 -32 0 -32 -5 0 -9 11 -9 23 0 14 -6 24 -14 24 -15 0 -16 -14 -3
-35 5 -7 7 -24 5 -39 -3 -24 1 -28 35 -36 43 -11 46 -19 12 -37 -19 -10 -30
-11 -50 -2 -35 16 -43 15 -19 -3 18 -14 17 -14 -10 -5 -22 8 -31 8 -38 -2 -6
-11 -8 -11 -8 0 0 7 -4 10 -10 7 -5 -3 -10 1 -10 9 0 9 8 16 19 16 30 0 51 11
51 26 0 8 -4 14 -10 14 -13 0 -13 33 1 47 8 8 8 17 0 32 -9 17 -7 29 10 63 12
24 16 39 11 33 -6 -5 -23 -34 -39 -64 -16 -30 -48 -69 -73 -90 -25 -19 -36
-26 -26 -13 19 22 19 22 -1 22 -12 0 -24 -7 -27 -16 -3 -8 -10 -13 -15 -10 -5
3 -11 -4 -14 -15 -4 -15 -11 -20 -23 -15 -13 5 -15 2 -11 -14 4 -15 -2 -24
-24 -35 -47 -25 -79 -35 -79 -26 0 5 15 11 33 15 24 5 29 9 17 16 -9 6 -17 5
-22 -3 -4 -6 -10 -8 -14 -4 -4 3 2 31 13 62 l21 55 -27 -5 c-14 -3 -20 -2 -13
1 6 3 12 13 12 22 0 15 -2 15 -11 2 -8 -11 -9 -9 -3 10 8 31 33 80 40 80 3 0
2 -5 -2 -12 -4 -7 -3 -8 5 -4 6 4 9 11 6 16 -16 26 111 190 164 214 41 19 41
17 26 97 -8 43 15 96 48 109 26 10 71 10 112 0z m-315 -1106 c-11 -25 -20 -48
-20 -50 0 -12 23 0 55 27 37 33 46 29 19 -9 -8 -12 -19 -20 -24 -17 -5 3 -11
2 -14 -3 -9 -15 45 -12 77 4 l32 17 -20 -23 c-24 -27 -74 -50 -110 -50 -14 0
-25 -4 -25 -9 0 -5 -8 -7 -17 -5 -15 4 -18 -2 -18 -40 -1 -61 24 -73 26 -13 2
39 2 38 9 -14 7 -59 24 -91 59 -115 20 -14 21 -14 21 13 1 15 7 39 15 53 8 14
15 36 15 50 1 22 2 23 11 7 6 -11 8 -42 5 -75 -5 -47 -2 -67 18 -112 38 -87
10 -113 -69 -65 -24 15 -55 25 -77 25 -78 0 -23 -71 60 -77 27 -1 30 0 19 11
-7 7 -24 17 -37 21 -22 7 -23 6 -11 -9 20 -24 1 -20 -26 6 -31 29 -29 40 5 32
71 -17 162 -95 162 -139 -1 -19 -2 -19 -20 4 -13 15 -20 18 -20 9 0 -8 14 -27
30 -43 17 -16 30 -33 30 -39 0 -5 -6 -1 -14 10 -8 10 -17 16 -20 13 -8 -7 16
-79 26 -79 4 0 8 -7 8 -15 0 -8 4 -15 9 -15 15 0 23 18 11 25 -19 11 -10 23
20 27 36 5 46 -4 25 -22 -8 -7 -12 -16 -9 -21 3 -5 -4 -9 -15 -9 -22 0 -28
-14 -11 -25 6 -3 10 -2 10 3 0 6 9 8 20 5 25 -7 16 -23 -12 -23 -29 0 -59 36
-92 109 -21 48 -27 73 -23 102 3 22 1 42 -5 46 -16 9 -78 9 -78 0 0 -5 -5 -5
-12 -1 -6 4 -8 3 -4 -4 3 -6 20 -13 37 -17 17 -4 28 -9 25 -12 -19 -19 -143
74 -159 120 -6 15 1 17 60 17 53 0 75 -5 110 -25 32 -20 43 -22 43 -11 0 23
-62 70 -141 109 -86 42 -100 53 -115 87 -18 40 20 141 46 125 5 -3 18 -1 31 3
21 8 21 9 -10 15 -22 5 -35 14 -38 28 -4 15 -8 17 -14 7 -4 -7 -6 -23 -2 -35
3 -13 1 -23 -5 -23 -6 0 -13 -10 -15 -22 -2 -13 -5 4 -6 36 0 33 2 56 5 53 4
-4 20 14 37 39 16 25 31 43 33 41 2 -1 -2 -19 -8 -39 -6 -20 -8 -43 -5 -52 8
-19 37 -21 37 -3 0 18 57 107 69 107 6 0 1 -21 -9 -46z m425 2 c8 -19 12 -43
8 -52 -4 -12 -3 -15 5 -10 8 5 12 0 12 -12 0 -13 10 -24 30 -30 27 -10 30 -9
36 12 3 13 -2 40 -10 61 -13 31 -14 35 -2 25 21 -17 56 -92 56 -121 0 -20 2
-21 11 -9 8 12 9 9 4 -10 -4 -14 -21 -38 -38 -53 -18 -15 -41 -36 -52 -46 -11
-11 -39 -29 -63 -40 -63 -32 -125 -99 -120 -131 l4 -26 -35 18 c-19 10 -44 15
-54 12 -14 -4 -17 -3 -12 6 6 10 0 12 -26 7 -30 -5 -31 -5 -11 5 17 9 31 9 56
0 44 -16 63 -15 70 4 9 24 0 29 -21 13 -17 -13 -17 -13 -3 5 8 11 29 27 45 38
36 22 26 24 -15 3 -16 -8 -36 -25 -44 -37 -12 -16 -16 -18 -16 -7 0 9 12 26
26 40 46 44 66 86 62 133 -4 51 11 47 33 -7 17 -44 16 -43 44 -17 14 13 25 35
26 49 0 21 2 23 8 8 10 -28 26 -25 26 4 1 24 -4 27 -58 38 -64 13 -160 52
-171 69 -4 7 10 6 36 -3 24 -7 56 -16 71 -19 15 -4 25 -10 23 -15 -6 -9 25
-21 53 -21 11 0 9 4 -5 16 -10 8 -12 12 -4 8 10 -5 9 0 -4 14 -21 24 -42 30
-30 10 4 -7 -10 3 -32 22 -21 19 -41 37 -44 39 -21 16 53 -16 83 -36 l39 -25
-7 34 c-3 18 -9 41 -11 51 -9 30 7 18 21 -17z m1091 -718 c24 -24 44 -50 44
-59 0 -28 -27 -30 -44 -3 -9 13 -24 24 -34 23 -10 0 -12 -3 -4 -6 19 -7 14
-23 -8 -23 -10 0 -28 10 -40 22 -16 17 -20 19 -20 6 0 -20 51 -64 96 -83 58
-24 134 -164 134 -246 0 -15 5 -31 10 -34 10 -6 14 6 11 38 -2 18 24 23 46 9
60 -38 12 -252 -57 -252 -22 0 -19 -38 4 -56 10 -7 15 -17 12 -23 -4 -5 10
-15 29 -22 19 -7 35 -17 35 -22 0 -17 -94 -1 -157 28 l-63 28 -51 -23 c-56
-24 -147 -37 -176 -25 -17 7 -17 8 2 15 11 5 34 9 50 10 28 2 29 2 6 9 -40 11
-35 28 9 34 38 5 97 34 88 43 -2 2 -21 -1 -42 -7 -23 -6 -47 -7 -64 -1 l-27 9
25 7 c53 16 80 29 74 37 -3 5 -10 7 -15 3 -6 -3 -18 -3 -27 1 -16 6 -16 7 0
16 16 9 15 14 -11 62 -51 91 -63 152 -58 295 6 160 6 161 42 196 64 60 115 58
181 -6z m-1277 -209 c11 -17 28 -68 40 -113 20 -81 115 -384 173 -551 17 -49
42 -101 55 -115 22 -23 32 -25 127 -28 82 -3 108 -7 119 -20 17 -21 97 -262
97 -294 0 -21 -10 -26 -103 -52 -93 -27 -367 -126 -493 -178 l-52 -21 -148 55
c-82 31 -229 81 -327 112 -115 37 -180 63 -184 73 -7 19 75 280 96 306 12 14
31 17 107 17 105 0 136 10 163 54 18 29 120 352 197 620 18 65 41 130 49 143
23 34 61 30 84 -8z m1216 -913 l34 -27 20 20 c26 26 61 35 118 28 57 -6 79
-25 60 -51 -11 -15 -17 -16 -35 -7 -11 6 -27 11 -34 11 -7 0 10 -11 37 -24 55
-26 110 -76 83 -76 -9 0 -21 7 -28 16 -20 23 -52 38 -59 27 -3 -6 -30 -7 -63
-4 l-56 7 29 -42 c16 -24 29 -48 29 -54 0 -8 8 -10 22 -7 21 6 58 -16 58 -34
0 -4 -14 -11 -32 -14 l-32 -7 40 -15 c68 -26 106 -27 137 -3 30 24 31 28 17
50 -6 10 -26 15 -64 15 -30 0 -52 -4 -49 -9 3 -4 21 -6 39 -3 36 6 43 -3 20
-22 -19 -16 -54 -1 -95 43 -19 20 -41 36 -49 36 -7 0 -10 5 -7 11 4 6 14 8 22
5 8 -4 23 4 34 16 l20 23 -6 -22 c-4 -13 -3 -32 0 -44 6 -18 8 -18 18 -5 19
24 89 38 127 25 39 -14 65 -65 51 -101 -37 -97 -205 -118 -251 -33 -7 14 -22
25 -32 25 -17 0 -17 -2 -3 -24 40 -61 -41 -130 -96 -80 -16 14 -18 13 -24 -18
-14 -61 -62 -108 -113 -108 -34 0 -43 -74 -14 -110 22 -28 56 -18 48 14 -16
63 37 134 117 158 23 7 52 25 65 40 36 42 84 54 138 33 24 -9 49 -26 55 -37
11 -20 10 -21 -52 -15 -74 6 -92 -1 -110 -45 -7 -18 -18 -36 -23 -40 -7 -5 -5
-8 4 -8 9 0 26 7 38 16 24 17 31 4 7 -16 -13 -11 -13 -15 0 -33 23 -33 18 -41
-12 -17 l-28 22 -6 -34 c-7 -43 -25 -75 -49 -88 -27 -14 -83 -12 -105 4 -17
12 -21 12 -32 -3 -11 -14 -15 -15 -40 -1 -38 21 -65 76 -59 120 5 32 2 36 -27
50 -32 15 -69 75 -81 133 -5 22 -3 27 13 27 11 0 22 -6 24 -12 3 -7 6 5 6 27
1 49 11 85 22 85 4 0 5 -23 2 -52 -5 -37 -3 -49 5 -44 8 4 16 -3 22 -20 6 -15
19 -39 30 -53 12 -18 16 -32 9 -42 -5 -7 -9 -18 -8 -24 0 -5 17 24 38 65 32
62 39 71 45 53 4 -14 -1 -38 -14 -65 l-21 -43 26 28 c32 36 32 71 0 103 -27
27 -30 40 -16 63 8 12 12 12 25 2 14 -12 16 -11 16 7 0 42 -13 83 -36 107 -26
29 -46 32 -68 10 -17 -17 -12 -39 14 -70 10 -11 20 -27 23 -35 4 -10 6 -7 6 7
1 13 -8 28 -19 35 -25 16 -26 28 -2 28 42 0 53 -42 26 -105 -8 -21 -13 -48
-10 -61 8 -32 -2 -31 -14 1 -6 16 -17 25 -32 26 -21 0 -22 1 -5 12 10 7 26 18
35 25 16 11 15 12 -1 6 -33 -12 -87 58 -87 111 0 29 49 85 73 85 10 0 13 7 10
20 -3 12 2 29 13 41 25 28 82 21 129 -15z m-2394 -32 c11 -10 25 -27 31 -37 8
-16 7 -18 -10 -12 -13 4 -40 -4 -71 -21 -50 -25 -52 -26 -79 -9 -15 10 -21 12
-14 4 17 -18 15 -34 -3 -19 -10 9 -15 9 -15 1 0 -6 5 -11 10 -11 6 0 5 -8 -2
-19 -7 -11 -16 -17 -21 -14 -6 4 -7 -8 -3 -30 4 -19 3 -38 -2 -41 -4 -3 -7
-31 -6 -63 3 -92 2 -90 20 -65 22 31 83 28 95 -5 11 -31 -22 -73 -47 -57 -10
6 -20 17 -23 25 -3 11 -1 12 11 2 8 -7 18 -10 21 -6 12 11 8 21 -10 26 -13 3
-11 5 6 6 19 1 22 -3 18 -19 -3 -11 -1 -20 4 -20 5 0 9 11 9 25 0 18 -7 26
-25 31 -32 8 -55 -11 -55 -44 0 -56 69 -83 110 -42 26 26 27 110 1 165 l-19
40 -1 -32 c-1 -37 -23 -63 -55 -63 -46 0 -65 59 -25 80 23 13 49 -2 49 -27 0
-20 -27 -28 -45 -13 -13 11 -14 10 -9 -4 7 -19 45 -21 62 -4 20 20 14 51 -19
102 -39 62 -24 86 17 26 52 -73 54 -76 34 -30 -11 25 -19 54 -19 65 0 11 6 1
13 -22 8 -23 23 -57 35 -76 21 -35 31 -78 11 -47 -8 11 -9 7 -4 -15 8 -37 14
-45 14 -18 0 11 3 23 7 26 3 4 8 19 9 33 4 33 46 99 79 120 13 9 41 18 62 21
49 6 88 -23 103 -78 12 -43 1 -98 -59 -313 -17 -60 -31 -127 -31 -149 0 -44
-15 -46 -40 -5 -8 14 -32 51 -52 82 -43 63 -47 101 -23 182 13 44 13 50 -2 66
-16 18 -15 18 20 3 20 -8 50 -15 66 -15 37 0 101 29 101 46 0 8 -12 5 -37 -8
-43 -22 -101 -18 -142 9 -20 12 -25 13 -33 2 -10 -16 -6 -94 6 -122 6 -13 5
-16 -7 -12 -12 5 -15 -6 -19 -57 -6 -82 5 -128 36 -155 33 -28 32 -32 -4 -44
-26 -9 -28 -14 -23 -40 6 -33 4 -34 -42 -15 -32 14 -34 13 -50 -10 -20 -31
-48 -31 -70 2 -11 17 -20 22 -28 16 -7 -5 -25 -12 -41 -16 -27 -7 -28 -5 -22
19 5 21 3 25 -16 25 -47 0 -53 15 -23 54 38 50 54 101 55 175 0 55 -2 62 -15
51 -9 -7 -15 -29 -15 -53 0 -32 -11 -57 -57 -126 l-57 -85 -13 64 c-7 35 -29
118 -49 184 -44 149 -53 220 -30 263 21 41 72 59 121 43 34 -11 95 -71 95 -93
0 -8 -4 -7 -11 3 -7 10 -9 11 -7 2 6 -25 23 -14 31 20 27 110 39 138 74 168
33 29 41 32 89 28 34 -3 62 -12 75 -24z m2839 -280 c0 -40 -26 -80 -64 -98
-19 -9 -39 -16 -46 -16 -7 0 -9 -8 -5 -20 18 -56 -65 -189 -100 -160 -8 7 -15
19 -15 26 0 11 -9 9 -37 -6 -41 -22 -63 -25 -63 -10 0 6 6 10 13 10 20 0 83
43 69 47 -8 3 -3 16 18 39 16 19 30 39 30 44 0 5 8 11 18 13 9 3 -13 5 -50 6
-56 1 -66 4 -62 16 5 11 23 15 78 15 91 0 140 14 166 47 24 31 25 43 5 43 -18
0 -20 36 -2 43 22 8 47 -13 47 -39z m-1548 -537 c29 -13 68 -36 87 -50 76 -58
151 -191 123 -219 -17 -17 -15 -95 2 -101 11 -4 13 -1 9 10 -5 12 -3 14 6 8
19 -11 9 -107 -18 -178 -31 -80 -114 -167 -199 -209 -61 -30 -74 -33 -162 -33
-85 0 -102 3 -160 31 -163 77 -261 264 -230 436 28 154 134 274 285 325 63 21
191 11 257 -20z m-76 -1064 c3 -11 33 -30 71 -47 62 -26 68 -27 79 -11 11 15
13 15 23 -4 15 -28 14 -61 -3 -61 -8 0 -16 -7 -19 -15 -4 -8 -29 -26 -57 -40
-48 -24 -62 -46 -39 -60 6 -4 20 2 32 13 12 10 39 22 59 25 36 5 88 -10 88
-26 0 -18 -34 -58 -46 -53 -7 3 -16 1 -19 -5 -10 -16 -26 1 -20 22 5 14 2 19
-12 18 -10 0 -13 -3 -6 -5 7 -3 2 -14 -13 -31 -32 -34 -30 -44 5 -37 16 4 32
1 35 -5 4 -6 14 -11 23 -11 18 0 53 -28 53 -41 0 -15 -58 -40 -65 -29 -4 6
-15 8 -26 5 -13 -4 -19 -2 -19 8 0 25 -29 27 -73 5 -47 -23 -76 -54 -77 -79 0
-19 23 -31 45 -23 21 8 20 -34 -1 -57 -21 -23 -8 -42 23 -36 13 2 40 -4 59
-14 l35 -18 -26 -17 c-14 -9 -50 -19 -79 -21 -47 -3 -54 -1 -52 14 1 14 -8 19
-36 21 -37 3 -77 32 -45 32 21 0 32 19 18 33 -7 7 -17 3 -34 -15 -13 -14 -40
-31 -60 -37 -20 -7 -37 -16 -37 -21 0 -18 13 -40 24 -40 14 -1 70 -49 64 -56
-10 -9 -88 -12 -94 -2 -3 5 -17 13 -30 18 -13 5 -24 17 -24 25 0 9 -7 27 -16
41 -16 24 -16 26 5 40 26 19 26 30 0 73 -21 35 -38 37 -19 2 8 -15 8 -27 0
-41 -12 -22 -18 -24 -40 -10 -12 7 -13 13 -4 27 9 14 8 24 -2 45 -12 23 -12
29 1 41 8 9 18 17 22 19 5 1 23 25 41 52 31 45 35 60 46 172 15 144 35 185
100 215 55 25 136 26 142 2z"/>
<path d="M3066 5398 c-8 -13 -29 -72 -46 -133 -37 -131 -110 -365 -151 -487
-16 -48 -29 -94 -29 -103 0 -12 15 -15 83 -14 85 1 82 4 -20 25 -29 6 -30 32
-4 107 32 93 52 127 72 127 22 0 24 -10 7 -30 -7 -8 3 -1 22 15 55 47 56 48
33 36 -30 -15 -51 -5 -58 30 -10 43 2 69 31 69 27 0 26 -2 15 59 -9 45 3 111
19 111 6 0 10 -26 10 -59 0 -32 2 -71 6 -87 4 -25 0 -32 -28 -47 l-33 -19 24
-19 c30 -24 50 -24 81 2 21 17 22 19 3 10 -12 -6 -34 -11 -50 -10 -15 0 -22 3
-15 6 6 2 12 11 12 19 0 9 11 14 31 14 27 0 31 3 26 21 -6 23 1 49 12 49 5 0
14 -18 21 -39 8 -26 17 -38 26 -34 8 3 25 2 39 -1 18 -5 25 -13 25 -31 0 -13
-5 -27 -11 -31 -6 -3 -7 -9 -2 -13 4 -3 20 -20 35 -38 21 -26 25 -40 21 -70
-4 -32 0 -42 21 -62 29 -27 34 -62 12 -81 -8 -6 -36 -15 -63 -20 -45 -7 -43
-8 33 -9 l82 -1 -8 33 c-4 17 -37 122 -74 232 -36 110 -74 229 -85 265 -11 36
-17 49 -13 30 9 -47 9 -156 -1 -166 -15 -15 -25 18 -16 51 11 38 -2 111 -19
108 -7 -2 -12 9 -13 25 0 15 -3 21 -6 15 -7 -20 -23 -15 -23 7 0 14 -5 18 -16
13 -17 -6 -17 10 2 64 6 16 5 16 -9 3 -35 -34 -31 -64 17 -120 25 -30 46 -59
46 -66 0 -7 3 -19 6 -28 3 -9 1 -16 -5 -16 -6 0 -16 11 -21 25 -5 14 -28 45
-51 70 -46 50 -47 66 -10 151 31 70 52 59 92 -50 15 -40 18 -43 13 -16 -3 19
-15 56 -26 83 -23 53 -48 62 -72 25z"/>
<path d="M3111 4958 c-129 -86 -154 -154 -74 -196 31 -17 95 -15 121 4 33 23
31 88 -3 110 -35 23 -31 47 10 75 19 13 37 30 40 37 9 24 -33 11 -94 -30z"/>
<path d="M3173 4928 l-22 -10 27 -40 c74 -112 -24 -198 -157 -138 -53 24 -51
24 -51 0 0 -41 40 -52 167 -48 72 2 126 8 138 16 19 12 19 13 -4 6 -22 -6 -23
-4 -17 20 l7 27 -22 -22 c-28 -28 -35 -17 -15 26 19 39 16 71 -13 136 -14 32
-18 35 -38 27z"/>
<path d="M2569 4618 c-14 -11 -99 -241 -99 -268 0 -5 33 -19 73 -30 139 -41
323 -104 427 -147 58 -23 113 -43 123 -43 10 0 69 20 130 44 62 24 199 72 305
106 149 48 192 65 191 78 0 9 -19 71 -43 137 l-43 120 -139 1 c-76 0 -120 -1
-96 -3 31 -3 42 -8 42 -21 -1 -20 -96 -152 -110 -152 -12 0 20 62 51 102 24
29 19 49 -10 41 -11 -3 -27 -28 -42 -66 -13 -33 -30 -63 -38 -65 -9 -3 -11 1
-7 16 5 14 1 21 -13 25 -23 6 -53 60 -45 81 7 19 55 21 72 4 21 -21 13 -30
-18 -23 l-30 7 18 -31 c9 -17 20 -31 23 -31 9 0 27 44 34 84 l7 36 -128 0
-129 0 40 -19 c38 -18 90 -67 149 -141 36 -44 103 -90 130 -89 18 1 18 2 -4 9
l-25 7 28 12 c52 21 90 -24 45 -53 -14 -8 -29 -7 -63 5 -53 19 -60 14 -10 -7
48 -20 82 -18 122 7 19 12 37 19 40 15 11 -10 -29 -46 -61 -55 -26 -8 -27 -9
-8 -10 12 -1 41 8 62 19 30 16 40 26 40 45 0 28 9 32 29 13 10 -11 12 -7 9 19
-3 35 15 47 20 13 5 -27 22 -26 22 3 0 36 -37 142 -49 141 -45 -4 -43 -2 -27
-26 37 -52 2 -128 -59 -128 -24 0 -39 7 -54 26 -41 52 -15 111 55 124 l39 8
-49 1 c-41 1 -47 3 -36 16 9 10 31 14 88 12 l76 -2 23 -74 c41 -129 42 -125
-67 -184 -140 -76 -186 -71 -342 34 -58 40 -94 47 -130 28 -32 -17 -2 -31 53
-23 58 7 72 -9 28 -32 -59 -30 -128 12 -225 138 -29 38 -66 53 -92 39 -27 -14
-32 -14 -32 4 0 19 41 29 86 22 32 -5 35 -4 32 16 -5 33 -49 34 -103 2 -54
-31 -58 -19 -8 25 34 30 40 32 92 27 31 -3 65 -2 76 3 12 5 -53 9 -170 9 -104
1 -206 4 -225 7 -22 3 -41 0 -51 -8z m189 -25 c3 -10 -15 -13 -66 -13 -55 0
-75 -4 -93 -20 l-24 -19 23 -1 c12 0 22 -4 22 -8 0 -14 -23 -32 -41 -32 -11 0
-21 -17 -32 -57 -9 -31 -15 -58 -14 -60 2 -1 20 0 40 4 33 5 37 9 37 36 0 24
-3 28 -12 19 -16 -16 -28 -15 -28 3 0 8 9 20 21 27 11 7 29 27 40 45 36 57
124 62 168 9 16 -19 50 -156 51 -203 0 -73 -59 -75 -88 -2 -17 44 -32 51 -32
15 0 -23 -16 -36 -46 -36 -8 0 -28 14 -46 30 -35 34 -48 38 -48 14 0 -13 -7
-15 -32 -10 -62 12 -65 24 -34 128 37 125 45 136 103 141 79 6 126 3 131 -10z
m204 -155 c101 -129 154 -156 229 -118 26 14 40 17 37 9 -8 -25 -56 -51 -101
-56 -36 -4 -55 0 -97 23 -57 31 -150 126 -150 153 0 46 41 41 82 -11z m-54
-59 c66 -88 128 -129 193 -129 43 0 47 -2 51 -27 3 -16 9 -36 13 -45 5 -14 2
-18 -13 -18 -13 0 -22 9 -26 25 -10 39 -28 30 -20 -10 7 -40 -7 -47 -24 -11
-6 13 -37 43 -69 68 -96 73 -206 218 -165 218 4 0 31 -32 60 -71z"/>
<path d="M3044 4565 c19 -29 20 -35 3 -35 -7 0 -18 9 -25 20 -19 31 -27 24
-27 -23 0 -36 7 -52 39 -91 37 -46 39 -47 53 -27 10 16 25 21 57 21 34 0 54
-8 101 -42 32 -23 55 -37 52 -30 -4 6 -35 29 -68 51 -64 43 -99 50 -143 29
-22 -9 -29 -8 -46 7 -12 11 -20 28 -18 39 2 17 11 22 47 24 62 5 82 -2 143
-49 52 -41 52 -41 23 -8 -69 78 -101 111 -120 121 -18 10 -19 10 -6 -6 24 -28
4 -30 -29 -2 -40 33 -57 34 -36 1z"/>
<path d="M4253 4533 c-4 -10 -11 -21 -17 -25 -6 -4 0 -11 14 -16 35 -14 79
-63 90 -101 9 -34 3 -92 -11 -101 -5 -3 1 -19 11 -35 17 -26 20 -27 20 -9 0
29 31 54 66 54 l29 1 -32 14 c-17 7 -39 25 -48 38 -19 29 -30 89 -21 113 5 14
9 14 24 3 9 -7 4 2 -13 20 -25 28 -79 61 -100 61 -3 0 -9 -8 -12 -17z"/>
<path d="M2024 4366 c-24 -24 -44 -50 -44 -57 0 -8 10 0 21 18 25 40 77 73
113 73 33 0 76 -41 76 -72 0 -60 -72 -93 -104 -47 -22 31 -6 64 30 64 24 0 29
-4 29 -25 0 -18 -5 -25 -20 -25 -23 0 -27 26 -5 32 13 4 13 3 0 -6 -8 -5 -11
-13 -7 -17 4 -4 13 -2 19 4 16 16 -4 37 -27 28 -21 -8 -16 -45 8 -60 21 -13
50 2 55 28 12 59 -36 98 -87 71 -30 -15 -91 -79 -91 -96 0 -5 17 -17 37 -26
45 -18 108 -13 147 12 25 17 28 23 23 62 -7 61 -29 83 -85 83 -39 0 -50 -5
-88 -44z"/>
<path d="M1495 4300 c4 -14 6 -35 6 -46 -1 -45 111 -69 184 -40 16 7 15 5 -4
-9 -35 -26 -105 -31 -137 -10 -14 9 -27 15 -29 13 -2 -2 14 -66 36 -142 21
-76 39 -145 39 -153 0 -8 5 -11 10 -8 15 9 12 89 -6 157 -8 33 -13 63 -10 66
3 3 6 1 6 -4 1 -5 11 -49 24 -99 21 -81 24 -87 32 -60 5 19 1 60 -10 114 -9
46 -15 85 -13 88 5 5 36 -110 40 -152 l3 -30 13 30 c9 23 10 44 1 93 -11 65
-6 103 6 44 7 -35 18 -41 28 -16 7 19 8 109 1 116 -3 3 -22 -3 -43 -14 -45
-24 -125 -20 -150 7 -16 17 -16 17 2 11 18 -6 19 -5 4 11 -8 10 -21 27 -27 38
-11 18 -12 18 -6 -5z"/>
<path d="M2122 4192 c-36 -14 -44 -22 -53 -56 -23 -85 -29 -154 -17 -183 l12
-28 3 30 c5 45 35 167 40 162 2 -3 -3 -35 -12 -71 -17 -76 -19 -124 -6 -145 8
-12 11 -8 16 15 6 26 61 235 72 277 6 20 2 20 -55 -1z"/>
<path d="M1790 3979 c0 -18 -14 -61 -31 -96 -33 -68 -33 -81 -1 -64 25 13 51
68 58 125 4 25 11 43 15 40 10 -6 4 -40 -18 -102 -13 -39 -13 -45 1 -67 21
-32 43 -32 58 0 9 21 8 35 -5 73 -10 26 -17 62 -17 80 0 21 -5 32 -14 32 -8 0
-21 3 -30 6 -13 5 -16 -1 -16 -27z"/>
<path d="M3028 3668 l-38 -10 23 -19 c16 -14 18 -18 7 -19 -9 0 -21 5 -28 12
-9 9 -12 6 -12 -14 0 -26 1 -26 28 -12 15 7 35 14 45 14 10 0 27 4 37 10 12 7
49 6 112 -1 51 -6 99 -11 106 -11 14 -1 37 -47 28 -55 -8 -8 -26 8 -26 23 0
15 -12 19 -23 8 -4 -4 23 -29 58 -56 36 -27 65 -53 65 -59 0 -12 -16 -4 -47
24 l-22 20 -28 -30 c-25 -26 -27 -32 -16 -54 7 -13 13 -36 13 -51 0 -19 5 -28
16 -28 30 0 3 -19 -51 -35 -30 -8 -55 -20 -55 -27 0 -7 5 -6 15 2 20 17 19 4
-3 -28 -25 -37 -37 -63 -15 -33 10 14 26 34 35 45 l17 21 1 -22 c0 -16 5 -20
19 -16 13 3 24 -2 32 -15 13 -20 13 -20 40 -2 50 36 68 137 24 133 -21 -2 -37
15 -28 29 2 5 13 6 24 3 14 -5 17 -3 13 9 -3 9 -10 16 -16 16 -5 0 -6 5 -3 10
11 18 35 11 44 -12 9 -23 9 -23 20 5 10 25 7 34 -23 80 -44 69 -87 108 -123
112 -15 2 -53 13 -83 24 -59 22 -122 25 -182 9z"/>
<path d="M2845 3596 c-47 -48 -98 -139 -109 -196 l-6 -35 19 31 c10 17 34 44
53 60 30 25 35 36 37 78 2 53 7 66 21 66 14 0 41 -45 43 -70 1 -11 20 -36 42
-54 41 -34 41 -34 74 -17 28 15 30 19 17 30 -12 10 -17 9 -26 -9 l-12 -22 -20
22 c-11 12 -18 23 -17 25 9 8 83 24 91 19 11 -7 10 3 -2 27 -6 11 -7 19 -1 19
15 0 32 -61 21 -74 -6 -9 1 -11 26 -8 33 4 41 0 98 -62 41 -45 68 -66 84 -66
21 0 23 3 17 33 -16 77 -76 125 -158 129 -53 2 -56 4 -51 25 7 25 4 26 -58 27
-37 1 -48 -7 -28 -19 13 -8 13 -25 -1 -25 -14 0 -42 69 -36 92 8 28 -28 23
-58 -9 -17 -19 -25 -23 -25 -12 0 8 5 20 12 27 7 7 9 12 5 12 -4 0 -27 -20
-52 -44z"/>
<path d="M2894 3465 c-8 -20 14 -72 32 -79 19 -7 18 4 -6 39 -25 38 -25 49 -1
36 24 -13 50 -68 44 -92 -12 -46 -93 18 -94 74 0 28 -2 27 -13 -16 -15 -54
-78 -127 -109 -127 -15 0 -18 -5 -13 -22 3 -13 6 -26 6 -30 0 -19 21 -5 35 23
9 17 19 28 22 25 3 -3 14 -1 24 4 12 7 19 6 22 -3 3 -9 8 -9 21 2 9 8 19 11
23 8 3 -4 12 -2 20 4 10 9 13 8 13 -6 0 -12 6 -10 24 12 34 42 61 96 48 101
-6 2 -27 17 -48 33 -43 34 -43 34 -50 14z"/>
<path d="M3064 3458 c-12 -5 -36 -41 -55 -80 -23 -47 -46 -79 -71 -98 -40 -29
-38 -40 9 -54 19 -6 27 0 54 44 44 71 101 98 144 66 15 -11 24 -11 54 1 l36
14 -45 48 c-43 46 -79 72 -97 70 -4 0 -17 -5 -29 -11z"/>
<path d="M3068 3313 c-14 -9 -39 -37 -54 -61 l-28 -44 -56 7 c-96 13 -122 11
-134 -8 -9 -13 -7 -24 7 -49 14 -25 15 -33 5 -39 -20 -12 66 -94 135 -129 98
-49 201 -50 311 -2 l40 17 -40 11 c-38 11 -39 12 -38 53 2 36 0 40 -11 24 -7
-10 -18 -35 -26 -57 -16 -44 -33 -54 -60 -38 -25 16 -39 15 -59 -3 -15 -14
-19 -13 -42 4 -14 12 -33 18 -45 15 -19 -5 -20 -2 -13 43 4 26 6 50 4 52 -2 2
-4 0 -4 -6 0 -6 -11 -8 -25 -5 -23 4 -25 8 -19 38 5 30 4 34 -15 34 -29 0 -27
18 3 26 45 11 71 1 74 -29 l3 -28 28 38 c22 30 94 97 140 130 7 5 -3 11 -29
17 -15 4 -36 -1 -52 -11z"/>
<path d="M3456 3302 c-4 -7 -5 -15 -3 -19 3 -5 -6 -26 -19 -48 -13 -22 -27
-48 -30 -58 -4 -12 -13 -16 -25 -12 -12 4 -21 1 -25 -9 -8 -22 -21 -20 -27 4
-6 25 -32 26 -63 1 l-24 -19 23 -6 c12 -3 32 -6 45 -6 14 0 21 -4 16 -11 -3
-6 -22 -9 -40 -7 -29 3 -34 1 -34 -17 0 -12 6 -30 14 -41 13 -16 18 -17 36 -6
15 9 25 10 34 3 24 -20 109 106 127 187 11 55 9 86 -5 64z"/>
<path d="M3144 2583 c0 -10 -6 -18 -14 -18 -8 0 -26 -8 -40 -18 -13 -9 -32
-17 -41 -17 -26 0 -48 -43 -58 -114 -11 -75 -20 -95 -73 -155 -42 -49 -48 -80
-22 -134 l16 -33 28 27 c19 20 34 26 49 22 28 -7 37 -29 21 -48 -11 -13 -10
-14 4 -9 27 10 18 43 -24 83 -32 30 -40 45 -40 72 0 39 7 52 36 67 25 13 67
-5 72 -31 5 -25 -17 -49 -41 -45 -30 4 -32 27 -5 37 23 10 23 10 1 10 -29 1
-39 -33 -19 -64 11 -16 26 -25 42 -25 33 0 91 27 98 46 4 11 2 11 -13 2 -25
-15 -51 -4 -51 22 0 12 4 19 9 15 5 -3 13 0 17 6 5 8 3 9 -6 4 -8 -5 -11 -3
-8 6 3 8 18 16 34 19 24 5 26 7 11 13 -13 5 -17 14 -13 29 3 13 3 18 0 11 -3
-8 -15 -9 -37 -2 -58 16 -88 77 -48 98 25 14 50 -12 32 -32 -23 -29 19 -35 83
-13 l40 14 -33 16 c-17 9 -29 21 -26 27 4 5 1 8 -5 7 -7 -2 -17 5 -23 15 -15
22 1 51 30 55 29 4 38 -27 11 -37 l-21 -8 24 -16 c45 -32 129 -13 129 29 0 29
-10 54 -22 54 -5 0 -6 -4 -3 -10 3 -5 -5 -15 -19 -22 -20 -9 -32 -8 -53 1
l-28 13 28 24 28 24 -29 0 c-22 0 -29 -4 -28 -17z"/>
<path d="M3615 7483 c-17 -13 -17 -15 -2 -9 12 4 16 2 11 -6 -5 -7 -3 -8 6 -3
9 5 11 4 6 -4 -4 -6 -12 -9 -17 -5 -12 7 -43 -17 -32 -25 9 -7 46 -80 48 -96
7 -51 19 -94 24 -91 3 2 6 -40 6 -94 0 -56 -4 -96 -9 -92 -5 3 -7 -5 -4 -16 4
-12 2 -24 -2 -27 -5 -3 -12 -26 -16 -50 -3 -25 -10 -45 -16 -45 -5 0 -15 -15
-23 -34 -8 -19 -19 -38 -25 -41 -6 -4 -8 -10 -5 -15 3 -4 -2 -10 -10 -14 -8
-3 -15 -11 -15 -18 0 -8 -22 -31 -49 -53 -28 -21 -48 -42 -45 -47 3 -4 7 -17
9 -29 4 -17 2 -19 -10 -9 -12 10 -15 10 -15 0 0 -8 -3 -10 -6 -7 -4 4 -1 13 6
22 21 25 -7 18 -45 -11 -19 -14 -36 -25 -39 -25 -18 3 -22 -1 -23 -21 -2 -15
1 -18 6 -10 4 7 14 12 22 10 8 -2 13 3 11 10 -1 8 2 11 9 6 8 -5 9 -3 4 6 -5
9 -4 11 3 6 7 -4 12 -2 12 4 0 6 5 8 10 5 7 -4 4 -13 -8 -23 -10 -10 -17 -24
-15 -32 3 -9 1 -11 -4 -5 -4 6 -15 11 -23 13 -11 3 -9 -2 5 -16 11 -11 23 -18
27 -15 4 2 17 -6 28 -17 11 -11 26 -18 33 -14 7 4 9 4 5 -1 -8 -9 16 -35 33
-35 8 0 5 8 -7 23 -10 12 -3 7 17 -11 29 -26 38 -30 49 -20 12 11 12 10 1 -5
-13 -16 -16 -16 -31 -2 -28 25 -29 6 -2 -25 28 -32 54 -42 31 -12 -13 15 -12
16 2 4 11 -8 15 -21 11 -35 -5 -20 -4 -21 11 -8 15 12 17 12 11 -3 -3 -9 -1
-16 5 -16 7 0 11 -6 9 -12 -4 -18 23 -79 32 -73 4 2 7 -9 8 -26 0 -17 5 -36 9
-42 5 -7 10 -25 12 -42 1 -16 6 -34 10 -38 5 -4 6 -35 3 -68 -4 -60 -4 -61 18
-49 12 6 24 9 28 6 3 -3 -1 -6 -9 -7 -9 0 -6 -4 6 -10 16 -8 15 -8 -8 -4 -31
6 -39 -7 -52 -85 -4 -25 -17 -65 -28 -90 -22 -47 -89 -144 -107 -155 -8 -5 -7
-11 1 -21 10 -12 14 -12 22 -2 6 9 7 8 3 -4 -3 -10 -1 -18 5 -18 6 0 7 -6 3
-12 -4 -8 -3 -10 2 -5 5 5 10 17 10 28 3 37 4 42 11 36 3 -4 11 -3 18 1 6 4 3
0 -7 -9 -9 -9 -15 -19 -12 -22 3 -2 17 7 32 22 22 22 25 28 13 37 -11 9 -12
12 -1 19 9 6 11 4 5 -5 -13 -21 14 -2 61 43 23 21 56 47 73 58 47 29 37 31
-13 3 -24 -14 -47 -31 -50 -39 -3 -8 -10 -15 -16 -15 -6 0 -4 12 5 30 8 16 14
33 13 37 0 4 4 21 10 36 7 16 12 35 12 43 0 8 7 17 15 20 8 4 13 10 10 14 -3
5 5 16 17 24 12 9 17 16 11 16 -7 0 -15 -5 -19 -11 -10 -17 -23 10 -18 39 3
13 -1 31 -7 39 -10 11 -10 13 1 11 7 -2 15 3 18 11 3 9 0 11 -7 6 -7 -4 -21 2
-32 14 -23 24 -25 39 -3 20 13 -11 14 -9 8 16 -5 20 -4 26 5 21 14 -9 14 4 1
38 -5 14 -15 24 -22 22 -7 -1 -10 -1 -5 1 4 3 7 11 7 19 0 9 5 12 13 8 9 -5 9
-4 0 6 -6 7 -9 20 -6 29 4 13 3 14 -5 1 -6 -8 -9 -17 -7 -20 1 -3 -3 -10 -10
-17 -10 -10 -14 -9 -19 3 -9 23 -7 44 3 44 5 0 7 -10 4 -22 -3 -18 -2 -20 6
-7 12 18 10 33 -8 77 -13 32 -14 32 -34 15 -11 -10 -17 -13 -14 -6 4 6 4 13 0
16 -5 2 -3 2 4 1 6 -2 14 4 17 12 3 8 1 14 -4 14 -6 0 -10 7 -10 15 0 19 -126
145 -145 145 -8 0 -14 5 -12 12 1 7 -3 12 -10 13 -16 0 -29 15 -14 15 7 0 9 5
6 10 -3 6 -2 10 4 10 5 0 17 7 25 16 15 14 14 17 -5 33 -17 14 -19 18 -6 18 9
0 14 -4 11 -8 -6 -11 30 -21 49 -13 17 6 32 34 18 34 -5 0 -11 -7 -15 -15 -3
-8 -10 -15 -16 -15 -5 0 -2 9 7 20 10 11 26 20 36 20 16 0 17 2 7 15 -11 13
-10 15 1 10 8 -2 19 -1 24 3 17 12 57 72 48 72 -4 0 -2 4 6 9 9 6 10 11 2 15
-6 4 -12 2 -12 -3 -1 -6 -2 -17 -3 -23 -2 -19 -53 -23 -53 -4 0 12 3 13 14 4
7 -6 17 -8 20 -4 4 4 1 12 -7 17 -13 9 -13 10 0 6 8 -2 20 5 27 17 7 12 12 15
13 9 0 -21 16 -14 28 12 6 14 9 38 6 54 -3 16 -1 31 4 35 6 4 8 -2 5 -14 -3
-11 -1 -20 5 -20 5 0 12 11 14 25 3 14 1 25 -3 25 -5 0 -9 5 -9 11 0 5 4 8 9
4 10 -6 16 8 26 69 6 34 4 38 -11 32 -14 -5 -15 -4 -4 9 7 8 19 15 26 15 8 0
14 5 14 11 0 5 -4 7 -10 4 -11 -7 -11 -8 -14 58 -1 27 -6 51 -12 55 -6 4 -9
22 -8 40 0 17 -3 32 -8 32 -6 0 -8 7 -4 15 3 8 1 15 -4 15 -6 0 -9 3 -9 8 4
22 -2 42 -11 37 -5 -3 -7 0 -4 8 3 8 -1 21 -9 28 -7 8 -13 24 -12 37 2 26 -3
27 -30 5z"/>
<path d="M4275 5913 c-16 -3 -35 -9 -42 -15 -7 -5 -16 -7 -21 -4 -4 3 -26 -1
-48 -9 -21 -8 -34 -14 -29 -15 13 0 -16 -20 -30 -20 -5 0 -3 5 5 10 21 13 6
12 -24 -2 -14 -6 -33 -22 -41 -35 -9 -12 -21 -23 -27 -23 -7 0 -3 7 8 16 20
17 18 16 -58 -35 -16 -10 -25 -21 -21 -24 3 -4 1 -7 -5 -7 -7 0 -21 -9 -32
-20 -18 -18 -18 -20 -2 -30 15 -10 14 -10 -4 -5 -24 6 -52 -19 -34 -30 5 -3
10 -12 10 -18 0 -8 -4 -7 -9 2 -8 12 -12 12 -25 2 -9 -8 -16 -19 -16 -25 0 -6
7 -2 15 8 8 11 15 16 15 10 0 -17 -15 -32 -34 -35 -11 -2 -21 -10 -24 -18 -3
-8 0 -11 6 -7 6 3 14 1 18 -5 5 -8 3 -9 -6 -4 -10 6 -12 4 -7 -8 7 -19 -8 -32
-19 -16 -5 8 -3 9 6 4 9 -5 11 -4 6 4 -10 15 -29 3 -22 -15 3 -8 2 -14 -3 -14
-17 0 -20 -55 -4 -72 9 -10 11 -18 6 -18 -6 0 -13 7 -17 15 -9 23 -22 18 -24
-10 -3 -46 -5 -54 -12 -50 -4 3 -6 16 -4 31 2 19 -1 24 -12 20 -9 -3 -12 -2
-9 5 4 6 14 8 24 5 14 -5 14 -4 -1 7 -10 8 -15 17 -12 20 3 3 -4 11 -16 17
-18 10 -21 9 -15 -1 6 -8 4 -10 -5 -4 -8 5 -11 3 -8 -6 3 -8 11 -13 18 -11 11
3 11 0 0 -12 -14 -17 -25 -22 -15 -7 3 5 1 12 -5 16 -5 3 -7 17 -4 30 5 20 1
27 -22 37 -16 7 -38 21 -49 31 -10 9 -25 15 -33 12 -7 -2 -10 0 -7 5 4 6 -6
10 -22 10 -20 0 -24 3 -14 9 11 7 11 9 0 14 -10 4 -10 6 -1 6 16 1 15 26 -2
40 -19 16 -46 3 -57 -26 -6 -17 -14 -23 -25 -19 -8 3 -12 2 -9 -4 3 -6 -1 -10
-9 -10 -8 0 -18 -6 -22 -12 -4 -7 -4 -10 1 -6 4 4 15 2 23 -5 13 -10 15 -9 8
3 -6 11 -4 11 6 -1 13 -16 56 -35 71 -31 4 1 7 -2 7 -7 0 -4 30 -26 67 -47 37
-22 93 -63 124 -92 55 -50 105 -76 96 -49 -2 6 2 32 10 56 7 24 10 42 7 38 -4
-3 -13 0 -20 8 -16 15 -19 29 -5 21 5 -3 11 1 15 9 3 9 12 12 22 8 12 -4 15
-2 12 8 -3 8 -11 13 -17 11 -7 -1 -10 2 -6 7 3 6 13 7 23 4 14 -6 15 -4 5 9
-7 8 -9 18 -5 22 4 4 7 13 7 18 0 6 7 13 15 15 13 4 13 3 0 -6 -8 -6 -10 -11
-5 -11 17 0 172 174 168 188 -3 6 -9 10 -13 7 -5 -3 -11 -1 -14 4 -4 5 1 8 10
7 8 -1 19 -8 24 -15 6 -10 15 -9 46 5 22 10 41 21 44 24 3 3 31 14 63 23 31
10 55 21 53 25 -3 4 4 8 14 8 10 0 16 -4 13 -9 -3 -4 10 -6 29 -2 46 8 117 8
153 0 17 -4 40 -8 53 -8 12 -1 22 -5 22 -9 0 -5 3 -7 8 -6 4 1 22 -6 40 -15
18 -10 37 -15 42 -12 5 3 12 0 17 -7 11 -17 69 -58 83 -58 5 0 10 -4 10 -10 0
-5 5 -10 11 -10 5 0 8 3 6 8 -3 4 6 8 19 8 l24 2 -23 -20 -22 -19 25 12 c14 7
31 19 38 28 8 9 10 10 7 3 -6 -11 -3 -12 11 -4 11 5 25 7 33 4 8 -2 11 0 8 5
-5 8 13 8 78 0 11 -1 23 -6 26 -11 4 -5 12 -5 19 -1 9 6 9 10 -1 17 -11 6 -9
8 6 6 11 -2 19 2 18 9 -2 7 4 10 15 7 14 -5 14 -3 -3 10 -11 9 -25 14 -32 12
-6 -3 -13 -1 -15 4 -4 13 -89 20 -110 9 -10 -5 -27 -5 -44 1 -24 10 -26 9 -14
-5 11 -14 11 -16 -1 -13 -8 2 -13 -3 -11 -11 2 -9 -3 -11 -15 -6 -34 14 -48
11 -45 -10 2 -14 0 -16 -6 -7 -4 6 -17 19 -28 28 -18 15 -18 15 2 5 12 -6 24
-8 27 -5 14 15 -94 90 -113 79 -5 -3 -10 -1 -10 6 0 9 -4 8 -15 -1 -17 -14
-16 -30 5 -48 13 -11 11 -11 -8 -2 -12 6 -20 15 -17 21 4 5 0 9 -7 9 -10 0
-10 2 0 8 19 12 -14 38 -65 51 -47 13 -171 20 -218 14z"/>
<path d="M1669 5831 c16 -10 1 -23 -33 -26 -36 -4 -37 -5 -31 -15 3 -6 -1 -7
-9 -4 -15 6 -20 -6 -19 -44 1 -10 -2 -10 -13 -1 -9 8 -11 16 -5 23 7 8 3 12
-15 14 -13 1 -24 -3 -24 -9 0 -5 -4 -7 -10 -4 -6 3 -7 -1 -4 -9 3 -9 10 -16
16 -16 5 0 7 4 3 9 -3 5 0 13 7 17 7 4 10 4 6 -1 -4 -4 -3 -14 3 -21 8 -9 4
-17 -15 -29 -14 -10 -23 -22 -19 -28 4 -6 1 -7 -7 -2 -10 6 -8 12 8 26 17 13
19 18 7 23 -23 9 -47 -22 -35 -45 16 -28 5 -23 -15 7 -9 15 -12 23 -6 20 7 -5
9 -1 5 9 -5 13 -11 11 -32 -10 -16 -16 -33 -24 -44 -22 -12 3 -16 1 -11 -6 4
-7 -1 -6 -11 2 -19 16 -89 24 -80 10 3 -5 -2 -6 -11 -2 -13 5 -14 7 -3 14 10
7 9 9 -4 9 -9 0 -22 -8 -27 -17 -6 -10 -11 -13 -11 -6 0 13 -40 14 -40 1 0 -4
-10 -12 -21 -19 -15 -8 -19 -8 -15 0 13 20 -9 11 -52 -20 -24 -17 -40 -34 -37
-37 3 -3 19 7 35 23 17 16 30 25 30 21 0 -5 -11 -17 -25 -28 -14 -11 -23 -23
-20 -28 3 -4 -3 -6 -13 -3 -10 2 -26 -5 -37 -18 -13 -15 -15 -20 -5 -15 12 6
12 5 -1 -6 -22 -19 -29 -42 -17 -59 8 -11 9 -10 4 4 -3 9 -1 17 4 17 6 0 10
-6 10 -13 0 -20 -21 -36 -39 -30 -11 3 -12 2 -4 -4 10 -7 10 -16 1 -41 -9 -24
-10 -35 -2 -40 13 -8 25 -64 13 -56 -5 3 -10 0 -10 -5 -3 -21 -4 -26 -14 -41
-8 -13 -7 -13 8 -1 9 7 15 17 12 20 -2 4 2 8 9 8 8 0 12 -6 9 -14 -3 -8 0 -12
8 -10 8 2 11 2 7 0 -5 -3 -8 -8 -8 -13 0 -15 80 -90 96 -90 8 0 13 -4 10 -9
-10 -15 22 -20 34 -5 10 11 10 14 -1 14 -9 0 -10 3 -4 8 17 12 17 35 0 28 -9
-3 -14 -2 -11 3 6 10 -50 62 -58 54 -3 -3 5 -14 18 -24 21 -17 31 -59 13 -51
-4 1 -10 2 -13 2 -4 0 -1 6 5 13 6 8 8 17 4 20 -3 4 -12 -1 -20 -11 -12 -15
-13 -14 -2 7 9 20 9 23 -3 18 -11 -4 -14 2 -13 26 2 34 -12 85 -15 57 -2 -8
-2 -19 -1 -24 1 -5 -5 -4 -13 4 -19 15 -21 24 -4 14 7 -5 9 -2 5 8 -3 9 -3 19
0 22 3 3 6 34 7 70 0 35 4 62 9 59 11 -7 8 12 -4 24 -8 8 -7 13 2 18 8 6 10 4
4 -5 -6 -9 -4 -11 5 -5 10 6 10 11 -4 20 -15 12 -15 13 0 19 23 9 31 7 14 -4
-13 -8 -13 -10 1 -10 19 0 52 34 42 43 -3 4 -1 7 6 7 8 0 11 7 7 18 -5 14 -4
14 9 -2 8 -11 15 -14 15 -7 0 7 4 10 9 6 5 -3 12 -1 16 5 3 5 16 10 29 10 12
0 27 5 32 10 7 7 20 7 35 2 13 -5 34 -8 46 -7 12 1 20 -2 17 -7 -4 -5 0 -8 7
-7 8 2 29 -5 46 -14 31 -17 33 -17 52 2 11 11 42 35 70 54 28 18 48 37 43 41
-4 4 0 7 8 6 28 -4 41 0 34 11 -4 8 1 9 17 5 13 -3 18 -3 11 0 -6 3 -9 10 -6
15 3 6 12 5 22 -3 14 -11 15 -10 8 7 -6 16 -5 18 5 8 18 -18 34 -16 20 1 -9
11 -9 16 0 22 7 4 9 3 6 -3 -9 -14 45 -24 60 -11 7 6 10 15 6 21 -3 6 -1 7 6
3 6 -4 9 -11 6 -16 -7 -12 78 -7 88 5 6 6 10 6 14 -2 2 -7 9 -13 14 -13 6 0 7
5 4 10 -3 6 -1 10 4 10 6 0 11 -5 11 -11 0 -7 11 -9 30 -5 20 4 29 2 25 -5 -4
-6 3 -7 21 -3 19 5 25 4 20 -5 -7 -10 -3 -12 37 -15 6 -1 14 -4 17 -8 3 -3 12
-8 20 -10 8 -2 21 -9 28 -16 11 -10 17 -10 29 -1 11 10 14 10 11 -2 -2 -9 5
-14 19 -14 13 0 28 -7 35 -15 11 -12 11 -12 -3 -2 -31 23 -27 -1 6 -29 36 -32
54 -36 73 -17 10 10 15 10 22 -2 8 -13 10 -12 10 3 0 9 -7 17 -16 17 -9 0 -12
5 -8 12 4 6 3 8 -3 5 -5 -4 -16 5 -23 18 -10 19 -17 22 -31 15 -20 -11 -37 4
-18 16 8 5 9 3 4 -6 -5 -9 -4 -11 4 -6 16 10 3 29 -16 22 -8 -3 -12 -2 -9 3 3
5 -11 19 -31 31 l-37 22 -17 -21 c-14 -17 -19 -19 -26 -8 -4 8 -15 17 -23 20
-8 4 0 5 18 3 17 -3 32 -1 32 4 0 12 -28 20 -47 13 -12 -5 -14 -3 -8 7 6 10 4
12 -8 7 -9 -3 -17 -1 -19 5 -2 6 -25 11 -50 12 -25 0 -44 4 -41 9 7 11 -147 8
-191 -4 -27 -8 -41 -8 -49 0 -6 6 -16 11 -21 11 -6 0 -5 -4 3 -9z"/>
<path d="M5009 5741 c-20 -17 -22 -22 -10 -33 12 -11 13 -10 8 4 -3 10 -3 19
1 22 4 3 9 -5 9 -17 1 -12 15 -34 32 -49 16 -14 26 -30 23 -34 -4 -4 2 -4 12
0 14 5 16 4 8 -6 -7 -9 -7 -18 3 -31 7 -10 11 -27 8 -37 -3 -11 0 -20 6 -20 7
0 8 -8 0 -26 -5 -15 -7 -29 -5 -32 3 -2 -3 -21 -13 -41 -11 -20 -19 -39 -20
-43 -1 -5 -1 -9 -2 -10 0 -2 -2 -11 -4 -21 -2 -11 -7 -22 -11 -25 -4 -4 -4 1
-1 11 4 9 2 17 -3 17 -6 0 -10 -4 -10 -8 0 -5 -11 -15 -25 -22 -13 -7 -22 -16
-20 -20 3 -4 -13 -10 -35 -14 -22 -3 -40 -11 -40 -16 0 -7 8 -7 23 0 21 11 21
11 -2 -8 -16 -13 -25 -32 -27 -58 -2 -21 -8 -55 -14 -74 -12 -42 -12 -43 -1
-35 5 3 13 0 17 -6 4 -8 3 -9 -4 -5 -15 9 -46 -39 -38 -59 4 -11 2 -14 -6 -9
-8 5 -9 2 -5 -9 4 -11 1 -17 -9 -17 -8 0 -13 -4 -10 -9 3 -5 -1 -12 -10 -15
-8 -3 -12 -10 -9 -16 4 -6 -9 -25 -29 -42 -19 -17 -33 -35 -31 -39 3 -4 -4
-10 -15 -14 -11 -3 -20 -10 -20 -13 0 -4 -16 -16 -35 -26 -19 -11 -35 -22 -35
-26 0 -4 -9 -10 -20 -13 -11 -3 -20 -13 -20 -22 0 -9 5 -13 10 -10 6 3 10 2
10 -3 0 -9 55 -37 73 -37 4 0 12 -7 17 -15 9 -13 11 -13 20 0 7 11 4 17 -11
22 -17 7 -19 28 -3 28 3 0 2 -5 -2 -12 -5 -8 0 -9 16 -5 15 4 29 -1 44 -15 11
-12 16 -18 9 -14 -6 3 -14 2 -17 -3 -4 -5 2 -11 11 -13 15 -3 14 -5 -4 -10
-17 -5 -21 -2 -18 13 2 11 -1 19 -6 19 -6 0 -9 -9 -7 -20 2 -12 6 -19 10 -18
4 2 17 -13 30 -32 13 -19 29 -36 36 -36 36 -4 37 -4 26 -12 -8 -5 1 -26 27
-65 22 -32 39 -63 39 -68 0 -5 5 -9 11 -9 6 0 8 -7 5 -16 -3 -8 -2 -12 4 -9 6
3 9 -2 8 -12 -3 -37 2 -68 10 -56 4 7 8 -9 9 -35 1 -26 2 -59 3 -74 0 -15 4
-27 8 -26 10 4 92 -44 92 -54 0 -4 4 -8 9 -8 5 0 8 8 6 18 -1 9 0 11 2 4 3 -7
10 -9 16 -5 9 5 9 3 0 -8 -9 -11 -8 -24 7 -57 22 -48 28 -148 12 -178 -6 -12
-7 -26 -2 -34 5 -8 6 -18 4 -22 -3 -4 2 -5 10 -2 9 3 16 1 16 -6 0 -6 -5 -8
-12 -4 -8 5 -9 1 -5 -12 6 -15 3 -14 -11 5 -18 23 -19 23 -40 5 -16 -13 -18
-20 -9 -27 7 -5 3 -6 -10 -2 -18 5 -25 1 -35 -19 -6 -14 -16 -26 -21 -26 -5 0
-3 7 4 17 13 15 12 15 -8 5 -12 -7 -31 -12 -43 -12 -12 0 -19 -3 -17 -7 3 -5
-10 -8 -28 -9 -19 0 -32 3 -30 7 3 4 -9 9 -27 11 -25 4 -28 3 -15 -7 12 -9 6
-11 -31 -11 -48 0 -126 -30 -117 -44 3 -5 -3 -8 -12 -8 -10 0 -37 -8 -60 -19
-34 -15 -40 -22 -30 -32 9 -10 7 -10 -13 -3 -13 5 -40 5 -60 1 -44 -10 -192
-15 -205 -7 -14 8 -87 22 -102 19 -7 -1 -13 2 -13 7 0 11 -46 32 -80 38 -19 3
-22 2 -10 -6 13 -8 13 -10 1 -10 -11 0 -9 -4 5 -16 18 -15 18 -15 -3 -5 -15 8
-20 18 -18 36 1 14 -2 28 -6 31 -5 3 -9 0 -9 -6 0 -6 -5 -8 -11 -5 -6 4 -8 9
-5 12 10 10 -32 45 -45 38 -8 -6 -10 -4 -4 5 6 10 4 12 -8 7 -9 -3 -19 -1 -23
5 -4 7 -3 8 4 4 7 -4 12 -1 12 7 0 18 -42 57 -61 56 -8 0 -6 -3 5 -8 19 -7 19
-8 -1 -13 -20 -5 -26 12 -10 28 4 4 -1 16 -10 27 -13 15 -14 18 -3 12 8 -4 5
3 -7 17 -13 13 -23 32 -23 41 0 9 -4 17 -9 17 -5 0 -8 11 -8 25 -1 32 -11 44
-23 25 -6 -9 -10 -10 -10 -3 0 6 5 15 10 18 6 3 10 11 10 16 0 6 -4 8 -8 5 -5
-3 -7 11 -6 30 2 24 0 32 -8 28 -8 -5 -9 -1 -4 12 6 16 5 16 -13 -3 -23 -25
-28 -42 -8 -24 10 8 14 7 14 -2 0 -7 -9 -14 -18 -14 -10 -1 -39 -22 -64 -46
-51 -51 -60 -72 -14 -33 22 19 35 24 44 16 6 -5 16 -6 20 -2 5 4 5 1 1 -6 -4
-6 0 -19 9 -28 15 -15 15 -18 -1 -35 -9 -10 -21 -16 -26 -13 -5 3 -24 -8 -44
-25 -19 -17 -38 -31 -42 -31 -4 0 -22 -13 -39 -29 -18 -16 -53 -39 -78 -52
-25 -12 -45 -28 -45 -34 0 -6 12 -22 26 -36 34 -31 96 -115 113 -154 7 -16 26
-70 42 -119 24 -73 40 -101 92 -163 67 -80 115 -151 116 -170 1 -6 -7 -14 -18
-18 -23 -7 -74 12 -66 25 3 5 0 7 -8 4 -8 -3 -27 7 -43 21 -16 15 -23 23 -15
19 17 -8 10 4 -26 54 -20 26 -28 31 -39 21 -7 -6 -11 -15 -8 -21 3 -5 12 -4
20 3 9 7 14 8 14 1 0 -18 -20 -24 -36 -12 -12 10 -12 16 -2 28 11 13 10 15 -3
10 -9 -4 -16 -1 -16 6 0 8 9 11 23 8 20 -4 23 0 21 24 -1 18 3 28 10 27 12 -3
10 28 -4 50 -4 6 -17 44 -28 82 -11 39 -25 70 -31 70 -6 0 -18 8 -28 18 -10 9
-13 17 -7 17 5 0 15 -8 20 -17 10 -17 10 -17 11 -1 0 9 -10 24 -22 32 -12 9
-17 16 -10 16 9 0 10 5 3 18 -12 23 -65 23 -69 0 -2 -8 11 -39 28 -67 16 -29
30 -56 30 -62 0 -6 4 -8 9 -4 5 3 13 0 17 -6 4 -7 3 -9 -4 -5 -6 3 -13 2 -17
-4 -3 -5 1 -10 9 -10 9 0 16 -5 16 -11 0 -5 -5 -7 -11 -3 -8 4 -9 -1 -4 -16 4
-12 8 -28 9 -34 1 -6 4 -15 7 -21 4 -5 4 -46 2 -90 -2 -44 -4 -90 -5 -102 0
-13 -4 -23 -9 -23 -5 0 -9 -7 -9 -16 0 -8 -9 -37 -21 -63 -11 -27 -21 -56 -23
-65 -1 -9 -12 -25 -24 -36 -12 -12 -22 -24 -22 -29 0 -13 -72 -84 -113 -111
-38 -26 -50 -47 -19 -36 14 5 13 3 -3 -9 -18 -14 -20 -14 -23 -1 -2 9 -10 12
-18 9 -13 -5 -13 -7 -2 -15 10 -7 8 -8 -7 -7 -27 4 -65 -10 -65 -22 0 -6 5 -7
10 -4 6 3 10 1 10 -5 0 -6 4 -9 9 -6 5 4 11 1 13 -5 3 -8 10 -6 21 5 15 16 17
16 17 1 0 -9 4 -14 8 -11 5 3 9 -2 9 -10 0 -10 -4 -11 -11 -4 -5 5 -15 10 -20
10 -6 0 0 -7 12 -16 12 -8 27 -12 34 -8 7 4 8 3 4 -4 -3 -6 2 -16 13 -22 13
-7 22 -7 26 0 6 9 0 13 -16 12 -3 -1 -6 5 -6 12 0 7 6 13 13 13 7 0 12 -3 11
-6 -2 -7 7 -11 24 -11 5 0 7 5 3 12 -5 7 -2 9 7 3 8 -4 1 4 -16 18 -25 21 -27
27 -17 40 11 13 10 21 -3 44 -16 26 -16 27 0 8 9 -11 21 -19 26 -17 6 1 7 -3
3 -10 -5 -7 10 4 31 26 22 21 39 42 38 46 -1 4 9 13 23 20 l24 13 -22 26 c-22
25 -22 25 -1 7 30 -25 41 -14 37 36 -2 27 0 38 5 29 5 -8 14 -10 21 -6 9 5 11
4 6 -3 -4 -7 -5 -12 -2 -12 6 0 37 63 40 82 1 7 5 18 8 23 9 15 -7 39 -20 31
-6 -3 -14 -1 -18 5 -4 7 -3 9 3 6 6 -4 16 0 23 8 7 8 16 13 20 10 5 -3 12 4
15 16 4 13 2 24 -5 29 -8 5 -6 10 7 15 28 13 46 11 51 -4 3 -10 0 -12 -11 -8
-17 6 -17 6 -38 -83 -24 -100 -84 -197 -176 -285 -35 -34 -63 -65 -63 -70 0
-6 16 -21 36 -35 20 -13 43 -34 51 -47 9 -13 19 -23 23 -23 8 0 50 111 55 144
5 37 23 74 42 85 15 8 16 13 6 30 -18 28 6 44 61 40 24 -2 42 0 39 4 -3 5 15
7 39 5 24 -2 43 -8 43 -15 0 -6 4 -15 9 -20 5 -5 6 -2 1 6 -6 10 -2 12 16 6
30 -9 50 -25 44 -35 -2 -4 5 -16 18 -26 l22 -19 -19 23 c-11 12 -14 22 -9 22
39 0 41 -89 4 -172 -29 -68 -57 -66 -128 7 -29 30 -53 60 -53 67 1 8 8 5 18
-7 17 -19 57 -32 46 -14 -3 5 -10 9 -16 9 -7 0 -23 10 -36 23 -14 12 -22 16
-18 10 4 -7 3 -13 -2 -13 -6 0 -13 7 -16 16 -4 9 -9 14 -12 11 -3 -3 1 -16 10
-29 20 -28 21 -44 2 -29 -11 9 -16 9 -21 0 -4 -6 -2 -15 5 -19 6 -4 10 -11 8
-15 -1 -4 8 -10 22 -12 23 -3 23 -3 6 10 -12 9 -15 16 -8 21 6 3 21 -8 33 -26
13 -18 38 -49 56 -68 37 -40 42 -65 14 -79 -24 -13 -34 -3 -19 18 8 10 4 9
-10 -3 -22 -19 -30 -32 -13 -21 5 3 12 1 15 -4 4 -5 -6 -19 -21 -30 -16 -11
-32 -24 -38 -28 -25 -20 -64 -35 -73 -29 -16 10 -6 -64 11 -81 11 -12 19 -12
35 -4 28 15 45 14 36 -1 -5 -8 2 -6 16 3 14 9 25 21 25 27 0 18 16 27 24 13 6
-9 11 -10 15 -2 4 6 2 11 -5 11 -7 0 0 14 16 30 29 30 52 41 39 17 -4 -7 -3
-9 2 -4 5 5 9 12 9 15 0 14 17 32 28 32 7 0 24 -11 39 -25 15 -14 31 -25 35
-25 4 1 -5 12 -22 26 -29 25 -29 25 -5 19 14 -4 28 -13 32 -20 4 -7 19 -16 33
-19 14 -4 24 -10 21 -14 -2 -4 33 -4 77 1 128 11 126 11 116 23 -5 7 -4 11 4
11 6 0 21 4 31 9 15 5 17 4 11 -6 -5 -9 -4 -11 4 -6 6 4 9 11 6 16 -7 11 87
100 98 93 4 -2 2 -12 -5 -21 -12 -15 -11 -16 5 -3 13 10 15 17 6 27 -8 10 -6
20 8 41 11 15 23 36 26 45 4 12 13 16 24 12 15 -5 15 -4 3 5 -30 21 5 33 89
29 44 -2 81 0 81 4 0 4 17 10 38 14 78 14 135 62 182 153 15 30 25 39 38 35
14 -5 14 -4 2 4 -12 9 -11 14 5 33 25 27 97 59 135 59 29 0 55 -21 42 -35 -4
-5 -1 -5 6 -1 8 5 32 1 55 -8 23 -8 82 -22 131 -31 90 -15 131 -37 121 -62 -2
-8 -1 -12 4 -9 5 3 11 -4 15 -17 5 -18 8 -20 16 -7 21 32 3 98 -34 129 -18 15
-22 36 -4 25 7 -5 8 -3 4 5 -5 7 -10 10 -13 7 -3 -3 -30 6 -59 19 -30 13 -71
27 -92 31 -85 16 -122 48 -93 80 13 15 61 147 61 171 0 25 8 28 109 49 90 18
183 49 230 75 33 20 59 17 31 -2 -13 -9 -13 -10 0 -6 8 2 14 12 13 22 -1 10
10 27 23 38 14 10 23 24 21 31 -2 6 3 17 10 25 18 17 9 80 -19 129 -10 19 -17
41 -14 48 3 8 0 11 -9 8 -15 -6 -28 -44 -14 -44 5 0 9 -16 9 -35 0 -36 -32
-81 -50 -70 -5 3 -12 0 -16 -6 -5 -8 -3 -9 7 -4 8 5 6 -1 -4 -13 -44 -49 -241
-105 -261 -74 -7 12 67 83 90 87 11 1 18 7 17 12 -1 6 12 25 28 44 17 19 28
26 25 17 -3 -10 -1 -18 5 -18 7 0 9 10 5 26 -4 16 -3 23 3 20 5 -4 12 -3 15 2
2 4 -4 9 -15 9 -10 1 -19 -2 -19 -7 0 -16 -70 -52 -87 -45 -10 3 -14 3 -10 -1
4 -4 -10 -19 -30 -33 -21 -15 -56 -43 -77 -64 -40 -37 -70 -51 -45 -20 12 14
10 14 -13 -1 -30 -20 -37 -32 -13 -22 24 9 17 -7 -13 -29 -21 -16 -43 -20
-102 -20 -101 0 -223 23 -216 40 4 11 -1 11 -24 4 -29 -11 -110 -9 -385 10
-177 11 -246 29 -352 87 -76 43 -203 171 -240 242 -14 28 -30 52 -35 52 -4 0
-8 5 -8 10 0 20 21 9 41 -22 12 -18 18 -24 15 -13 -4 11 -3 16 1 11 4 -4 8
-18 8 -29 0 -13 6 -22 15 -22 9 0 14 -8 12 -19 -2 -11 1 -15 8 -11 6 3 10 3 9
-2 -3 -19 2 -34 10 -28 5 3 12 -3 16 -14 4 -13 13 -18 26 -16 16 3 18 1 10 -9
-16 -19 8 -36 34 -25 28 11 47 11 40 0 -3 -5 -1 -13 5 -16 8 -5 8 -11 0 -20
-8 -9 -6 -17 5 -29 9 -9 20 -14 24 -11 5 2 17 -4 28 -15 21 -19 21 -19 33 11
16 37 24 32 10 -6 -12 -31 -4 -48 10 -25 8 13 10 12 10 -2 0 -18 37 -33 73
-30 9 0 17 -3 17 -8 0 -5 20 -8 45 -6 24 2 42 -1 39 -5 -3 -5 2 -9 10 -9 9 0
16 6 16 13 0 8 3 8 8 2 4 -6 35 -10 70 -10 35 1 65 -2 68 -6 2 -4 14 -4 27 -1
22 6 22 6 -3 14 -22 7 -21 7 7 5 18 -2 30 -1 28 3 -2 3 17 12 41 19 35 11 44
17 39 30 -5 12 -3 13 6 4 15 -15 108 33 120 62 4 11 8 16 8 10 1 -12 71 -15
71 -3 0 4 5 8 11 8 5 0 7 -6 3 -12 -4 -7 -4 -10 1 -6 4 4 14 3 21 -3 8 -6 21
-8 31 -4 10 5 26 7 37 6 10 -2 15 2 12 7 -3 6 1 13 10 16 8 3 12 2 9 -4 -7
-12 8 -14 19 -3 7 8 11 9 37 12 5 0 7 5 4 11 -3 5 0 7 8 4 17 -6 60 43 50 59
-4 6 0 8 10 4 22 -8 51 31 36 50 -6 7 -16 10 -22 6 -6 -3 -7 -1 -3 5 5 9 13 9
27 2 15 -8 19 -7 20 5 2 19 4 25 14 49 5 12 3 21 -6 27 -9 6 -10 9 -2 9 12 0
14 22 6 82 -3 27 -8 35 -19 31 -10 -4 -12 0 -8 11 3 9 1 16 -5 16 -6 0 -11 -5
-11 -11 0 -5 -4 -7 -10 -4 -5 3 -10 11 -10 16 0 6 4 8 8 5 4 -2 14 -1 22 5 11
6 12 9 2 9 -7 0 -11 4 -7 9 3 5 -4 13 -16 16 -12 4 -17 10 -12 14 6 3 3 14 -8
25 -11 11 -19 14 -19 8 0 -7 -4 -12 -10 -12 -5 0 -7 6 -5 13 3 7 -9 20 -27 30
-29 15 -33 23 -34 60 0 23 -3 51 -6 63 -21 75 -32 104 -40 104 -5 0 -7 -4 -4
-8 2 -4 0 -14 -5 -22 -6 -11 -8 -5 -4 18 5 32 -9 41 -28 17 -5 -6 -7 -4 -4 5
2 8 9 16 15 16 7 1 15 2 18 3 4 0 -5 10 -20 22 -14 11 -31 17 -38 13 -10 -5
-10 -4 -1 6 10 11 16 10 33 -5 29 -26 25 -14 -8 23 -28 31 -57 47 -33 18 10
-12 8 -17 -6 -25 -15 -8 -19 -6 -20 10 -1 11 7 25 17 31 17 11 17 13 2 25 -20
15 -36 17 -27 4 3 -5 0 -13 -6 -17 -8 -4 -9 -3 -5 4 8 13 -5 16 -20 4 -5 -4
-8 -5 -7 -3 2 2 -5 10 -15 18 -9 8 -12 12 -5 9 6 -4 14 -2 17 3 4 5 1 11 -6
14 -8 2 -7 3 2 3 9 -1 14 -9 12 -20 -3 -15 0 -16 18 -6 24 13 18 27 -16 40
-13 5 -24 16 -24 24 0 8 -19 26 -42 40 -40 24 -43 24 -62 8 -19 -17 -19 -17 0
9 10 15 22 25 26 23 4 -3 11 3 16 12 5 9 11 14 13 13 9 -7 59 46 54 59 -2 7 0
10 5 7 6 -3 10 2 10 11 0 10 3 14 7 11 3 -4 17 8 30 25 24 34 28 42 15 34 -5
-3 -8 5 -7 17 1 15 8 21 20 19 9 -2 14 1 11 7 -4 5 -2 12 3 15 17 11 49 110
55 171 5 45 3 56 -5 45 -9 -13 -10 -13 -6 0 2 8 10 14 16 12 21 -4 52 18 49
36 -2 10 5 17 17 19 l20 3 -20 -9 c-15 -7 -16 -10 -4 -10 8 -1 22 5 30 12 22
18 56 61 42 54 -7 -5 -10 3 -9 23 1 17 -1 30 -6 30 -4 0 -8 5 -8 11 0 8 4 8
14 0 10 -8 16 -9 21 -1 8 13 25 13 25 -1 0 -5 -4 -7 -10 -4 -6 4 -7 -1 -4 -12
4 -13 3 -15 -4 -5 -7 11 -11 10 -16 -4 -3 -9 -4 -19 -1 -22 8 -9 38 25 40 45
1 10 5 25 8 33 10 29 16 78 9 84 -3 4 -7 15 -7 24 -4 55 -6 63 -15 57 -6 -4
-7 -11 -4 -17 4 -7 2 -8 -4 -4 -9 5 -9 13 -2 26 13 25 13 33 -2 24 -8 -5 -9
-2 -5 9 4 11 -2 22 -16 32 -12 8 -17 15 -12 15 5 0 -1 7 -13 16 -13 9 -26 13
-29 10 -4 -3 -1 -6 7 -6 10 0 10 -3 0 -15 -7 -8 -10 -22 -6 -30 3 -9 2 -13 -4
-10 -6 3 -10 13 -10 21 0 8 -4 13 -8 10 -5 -3 -9 1 -9 9 0 12 3 12 16 2 12
-10 14 -9 8 5 -3 10 -2 20 3 23 6 4 10 10 10 16 0 16 -37 10 -61 -10z m-1010
-2345 c9 -8 56 -26 105 -40 78 -23 106 -26 243 -26 146 0 159 -2 214 -26 33
-15 59 -31 59 -36 0 -6 -13 -27 -29 -47 -15 -20 -36 -51 -45 -69 -10 -19 -21
-30 -28 -26 -6 4 -8 3 -4 -4 3 -6 -4 -35 -17 -64 -13 -29 -32 -78 -41 -110
-15 -45 -23 -57 -43 -61 -13 -2 -28 1 -33 7 -51 67 -97 107 -145 126 -30 12
-53 25 -51 29 2 3 -11 7 -30 8 -64 3 -94 30 -120 108 -13 39 -21 77 -18 85 3
8 2 11 -2 7 -7 -7 -94 117 -94 134 0 8 22 16 49 18 8 0 22 -5 30 -13z m1151
-11 c0 -44 -77 -144 -99 -130 -6 3 -11 1 -11 -4 0 -6 -8 -11 -18 -11 -25 0
-64 29 -56 42 4 6 3 8 -3 5 -15 -10 -45 27 -37 47 3 9 1 16 -6 16 -6 0 -8 -4
-5 -10 10 -16 -81 -12 -94 4 -17 20 6 26 107 26 48 0 110 7 137 14 67 19 85
19 85 1z m-331 -217 c52 -21 53 -22 46 -57 -10 -51 -30 -87 -78 -132 -51 -51
-137 -95 -201 -104 l-49 -8 7 34 c11 55 64 161 77 153 8 -4 7 -9 -2 -15 -8 -5
-9 -9 -3 -9 18 0 24 13 13 27 -17 19 8 48 27 32 13 -11 17 -8 12 9 -2 4 -6 6
-10 5 -20 -7 -4 18 32 51 47 42 59 43 129 14z m-572 -320 c48 -21 98 -67 109
-101 7 -22 -23 -58 -45 -55 -9 2 -16 -4 -16 -12 0 -17 -44 -42 -63 -35 -7 3
-10 1 -7 -5 17 -27 -175 -24 -203 4 -15 14 -14 20 5 60 12 24 27 71 34 104
l12 59 63 1 c44 1 77 -5 111 -20z"/>
<path d="M1179 5221 c-3 -26 -4 -30 -11 -36 -8 -8 7 -24 37 -41 13 -8 19 -20
17 -35 -4 -24 -3 -24 12 -4 14 18 14 17 4 -18 -9 -30 -9 -40 1 -46 6 -4 11
-12 10 -17 -1 -5 0 -12 1 -16 1 -5 3 -11 5 -15 14 -52 18 -62 25 -58 4 3 7 -3
6 -13 0 -9 4 -16 11 -15 7 2 10 -4 7 -12 -4 -8 -2 -15 4 -15 6 0 12 5 14 10 2
7 11 5 23 -4 17 -12 18 -17 6 -28 -12 -11 -13 -10 -8 4 5 15 2 16 -33 8 -3 0
3 -5 13 -11 9 -6 15 -14 13 -18 -3 -4 14 -27 38 -49 31 -30 50 -40 63 -36 15
5 15 4 3 -5 -16 -11 -15 -13 34 -49 19 -15 23 -22 13 -22 -9 0 -19 -5 -23 -12
-5 -7 -3 -8 6 -3 8 5 11 4 6 -3 -4 -6 -12 -9 -19 -6 -19 7 -52 -32 -36 -42 8
-5 10 -3 4 7 -7 12 -6 12 7 1 11 -9 18 -10 23 -2 3 6 11 7 17 4 6 -4 15 0 20
7 8 12 9 11 5 -1 -2 -8 -10 -16 -18 -16 -8 -1 -18 -3 -24 -4 -5 -1 -13 -2 -17
-1 -5 0 -8 -6 -8 -15 0 -11 5 -14 18 -9 13 5 14 3 5 -6 -13 -13 -33 -4 -33 17
0 16 -9 18 -29 5 -8 -5 -10 -14 -6 -22 6 -10 10 -8 17 7 8 18 8 18 5 -1 -1
-11 -8 -21 -15 -21 -22 -3 -23 -4 -13 -22 8 -15 5 -18 -12 -19 -12 0 -16 1 -9
4 6 3 9 9 6 14 -3 6 0 16 6 24 7 8 9 15 5 15 -21 0 -100 -124 -89 -141 4 -7 3
-9 -3 -6 -14 9 -42 -62 -39 -96 2 -15 0 -24 -4 -22 -11 7 -21 -40 -14 -59 3
-9 1 -16 -5 -16 -7 0 -11 -6 -10 -12 3 -27 -2 -38 -16 -38 -8 0 -15 -5 -15
-11 0 -5 -4 -8 -9 -5 -9 6 -61 -30 -61 -43 0 -9 28 -12 49 -5 10 3 11 7 2 18
-8 10 -9 16 -1 21 5 3 10 -1 10 -10 0 -11 5 -15 15 -11 8 3 14 2 14 -2 -3 -20
4 -21 41 -2 38 19 40 23 41 68 1 26 2 52 3 57 4 20 28 98 38 124 6 14 12 29
12 33 1 3 4 10 9 14 14 14 7 26 -9 14 -8 -8 -14 -9 -13 -4 4 21 -2 28 -11 14
-5 -8 -10 -10 -10 -4 0 6 10 19 22 30 16 13 19 14 10 2 -9 -11 -10 -18 -2 -23
5 -3 10 0 10 7 0 10 3 9 10 -2 5 -8 12 -11 16 -7 4 3 1 15 -7 24 -13 16 -12
17 3 5 11 -9 18 -10 23 -2 3 5 3 10 -1 10 -4 0 5 9 20 21 14 11 23 25 20 31
-4 6 -2 8 4 4 6 -3 19 4 29 17 10 13 31 32 46 42 22 14 25 20 15 27 -9 6 -6 7
10 3 12 -4 22 -2 22 4 0 5 -8 12 -17 14 -16 4 -16 5 -1 6 11 1 15 7 11 20 -3
10 0 22 6 25 6 4 9 1 6 -6 -4 -9 2 -14 15 -14 11 0 20 4 20 8 0 12 -40 30 -55
24 -10 -3 -12 0 -8 11 4 10 2 14 -5 9 -6 -3 -18 4 -26 16 -9 12 -16 19 -16 14
0 -5 -8 1 -19 12 -10 12 -24 22 -30 22 -7 0 -9 4 -6 10 4 6 -1 7 -11 3 -11 -4
-15 -3 -11 4 4 6 1 14 -5 16 -10 4 -10 6 0 6 9 1 10 4 2 14 -6 6 -18 21 -26
32 -9 11 -12 13 -8 5 4 -9 3 -12 -2 -7 -5 5 -9 14 -10 20 -1 24 -26 77 -36 77
-5 0 -6 5 -3 10 3 6 2 10 -4 10 -6 0 -8 7 -5 15 4 8 1 15 -5 15 -7 0 -11 6 -9
13 1 6 -2 35 -7 62 -4 28 -7 56 -6 63 2 15 -38 32 -58 24 -10 -4 -12 -1 -6 9
4 8 5 11 0 7 -4 -4 -14 -3 -22 3 -9 9 -13 8 -14 0z"/>
<path d="M2405 4080 c4 -22 2 -29 -6 -25 -6 5 -10 0 -8 -11 2 -11 -2 -29 -9
-41 -7 -12 -9 -29 -6 -37 3 -9 1 -16 -5 -16 -6 0 -8 -7 -5 -15 4 -8 -1 -17
-10 -21 -9 -3 -16 -11 -16 -16 0 -6 -11 -24 -25 -40 -14 -16 -23 -34 -19 -39
3 -5 -2 -9 -11 -9 -12 0 -14 -4 -5 -20 8 -16 6 -21 -12 -30 -21 -10 -21 -10
-6 3 10 8 15 17 12 20 -9 9 -74 -55 -67 -66 3 -6 1 -7 -5 -3 -6 3 -28 -8 -48
-26 -21 -18 -35 -27 -30 -20 6 10 2 10 -18 0 -14 -6 -26 -14 -26 -18 0 -4 -6
-7 -12 -8 -7 -1 -38 -8 -68 -15 -93 -24 -176 -34 -194 -22 -12 7 -19 6 -26 -5
-6 -9 -10 -10 -10 -3 0 7 -10 10 -26 7 -14 -3 -23 -1 -20 5 3 5 -3 7 -14 4
-12 -3 -20 0 -20 6 0 7 -4 10 -9 6 -5 -3 -13 0 -16 6 -4 5 -13 8 -21 5 -7 -3
-20 2 -28 10 -9 8 -21 14 -28 12 -7 -1 -26 10 -42 25 -16 14 -32 25 -36 22 -4
-3 -13 2 -20 10 -10 12 -16 13 -27 4 -11 -10 -11 -15 4 -32 l18 -21 -27 20
c-14 10 -22 21 -17 22 5 2 7 8 3 13 -3 5 0 8 7 7 6 -2 14 3 17 11 4 11 -2 13
-29 7 -18 -3 -35 -10 -39 -14 -3 -4 -10 -8 -17 -9 -7 -2 -30 -7 -52 -12 -22
-5 -43 -6 -46 -3 -3 3 -11 7 -18 8 -7 1 -21 6 -32 10 -18 7 -19 6 -6 -12 8
-10 -5 0 -30 23 -34 32 -49 41 -67 37 -13 -4 -22 -2 -22 5 0 5 7 8 15 5 8 -4
15 -3 15 0 0 9 -42 69 -55 78 -7 5 -7 8 0 8 6 0 10 26 11 58 0 31 2 66 4 77 1
11 -1 29 -5 40 l-8 20 17 -20 c17 -19 17 -19 4 5 -7 14 -11 28 -10 31 1 4 -7
5 -18 2 -57 -15 -75 -217 -24 -274 8 -9 12 -18 8 -21 -8 -9 96 -109 107 -103
5 4 9 1 9 -6 0 -7 3 -9 7 -5 4 4 -6 18 -22 31 -17 13 -24 24 -17 25 6 0 12 -4
12 -10 0 -5 5 -10 11 -10 6 0 9 7 6 14 -4 10 -1 13 7 10 7 -3 13 -13 13 -22 0
-44 4 -51 35 -57 65 -15 108 -13 118 4 8 13 9 14 10 1 0 -13 1 -13 10 0 6 10
10 11 10 3 0 -10 6 -10 25 -1 19 9 22 14 14 25 -17 20 -7 16 31 -12 37 -28 64
-20 40 12 -13 17 -13 17 5 1 18 -17 18 -18 0 -38 -15 -16 -16 -23 -6 -33 10
-9 11 -9 6 4 -4 10 0 19 8 22 9 3 14 0 13 -10 0 -9 8 -17 19 -19 11 -2 42 -14
69 -28 37 -18 54 -22 67 -15 15 7 17 6 13 -6 -4 -11 0 -15 16 -15 11 0 19 4
16 9 -3 5 5 11 19 13 20 4 23 2 15 -7 -8 -9 -8 -15 0 -20 5 -3 14 4 19 17 l10
23 0 -24 c1 -15 6 -21 15 -18 7 3 18 1 23 -4 12 -12 172 7 188 22 5 6 5 9 -3
9 -7 0 -12 5 -12 11 0 8 4 8 13 1 20 -17 113 0 102 19 -3 5 2 6 11 2 11 -4 15
-2 11 4 -8 13 -76 13 -74 0 1 -5 -5 -12 -13 -14 -13 -4 -13 -3 0 7 12 10 11
11 -9 6 -18 -4 -21 -2 -13 6 15 15 93 19 108 7 7 -6 22 -4 40 6 25 13 26 19 4
17 -3 0 -5 10 -5 23 0 13 2 21 4 19 2 -2 11 2 19 9 13 9 14 9 8 0 -4 -8 -1
-13 9 -13 9 0 13 -5 9 -11 -11 -18 28 6 54 34 13 13 22 31 20 38 -2 8 4 13 13
11 9 -1 28 13 42 31 23 31 24 33 6 34 -12 1 -17 -3 -13 -9 4 -7 2 -8 -5 -4
-15 10 -3 29 15 22 8 -3 24 4 36 16 l21 21 -23 19 c-12 10 -17 18 -12 18 6 0
14 -4 17 -10 7 -12 26 -14 24 -2 -1 4 -1 18 0 32 1 18 4 21 10 12 6 -10 10 -9
14 7 3 13 -1 24 -11 30 -8 5 -17 16 -18 25 -1 9 2 14 7 10 5 -3 6 -10 3 -16
-4 -6 -1 -9 7 -6 14 5 85 -27 95 -43 10 -16 24 -9 18 9 -5 16 -5 16 9 -1 14
-17 15 -17 33 0 15 16 17 16 12 1 -9 -22 24 -52 40 -36 9 9 10 6 7 -12 -2 -12
-7 -25 -10 -28 -5 -6 42 -33 65 -37 14 -2 50 30 50 45 0 8 -49 25 -62 22 -5
-1 -8 2 -8 6 0 12 -50 33 -61 26 -5 -3 -8 0 -7 6 2 7 -6 17 -17 23 -11 7 -23
16 -26 21 -4 5 -15 6 -24 2 -11 -4 -15 -2 -13 6 5 13 -70 90 -105 109 -15 9
-17 6 -12 -21z"/>
<path d="M3745 4048 c-15 -12 -37 -23 -48 -23 -11 -1 -25 -9 -31 -17 -6 -8
-21 -20 -34 -27 -12 -7 -20 -17 -16 -23 4 -6 3 -8 -3 -5 -6 4 -16 0 -23 -7 -9
-12 -7 -17 8 -25 11 -6 22 -8 26 -6 3 3 3 2 0 -2 -10 -13 -28 -9 -42 9 -10 14
-17 15 -37 6 -14 -6 -25 -15 -25 -20 0 -5 4 -7 9 -4 5 4 8 -1 7 -11 -2 -9 -14
-18 -27 -20 -21 -2 -22 -1 -6 8 9 6 15 15 12 20 -4 5 -35 -7 -71 -27 -40 -22
-71 -34 -82 -29 -13 5 -14 3 -5 -6 6 -6 23 -13 36 -14 31 -4 60 -19 78 -42 13
-16 12 -17 -3 -4 -10 7 -18 9 -18 4 0 -16 71 -73 83 -66 6 4 8 0 4 -10 -4 -10
-2 -16 6 -14 7 1 11 -7 9 -18 -2 -16 -1 -17 7 -5 5 8 7 18 4 23 -3 5 5 4 17
-3 21 -11 22 -10 16 6 -6 18 -5 18 9 0 8 -11 15 -16 15 -12 0 17 -62 86 -72
80 -6 -4 -8 -3 -5 3 4 6 -4 20 -17 32 -24 23 -45 14 -30 -11 4 -7 -2 -4 -14 6
-23 20 -30 32 -12 21 15 -10 12 5 -5 22 -9 8 -13 18 -10 21 3 3 12 -4 21 -16
14 -21 17 -21 45 -7 16 9 27 20 24 25 -3 5 0 12 6 16 8 4 9 3 5 -4 -4 -7 -3
-12 3 -12 5 0 15 8 20 18 6 9 11 13 11 9 0 -11 80 34 80 45 0 4 5 8 11 8 16 0
79 57 72 64 -6 5 22 10 54 9 7 -1 10 4 7 9 -4 5 -15 7 -26 5 -14 -4 -17 -2 -9
7 5 6 6 17 2 24 -6 9 -15 7 -36 -10z"/>
<path d="M2415 3870 c-37 -76 -100 -152 -173 -213 -19 -15 -30 -27 -26 -27 3
0 -24 -16 -62 -36 -180 -92 -422 -97 -600 -12 -38 18 -47 19 -120 7 -43 -7
-133 -13 -200 -15 l-121 -2 -57 53 c-31 29 -83 67 -116 84 -33 18 -58 36 -55
41 3 5 0 12 -6 15 -5 4 -8 13 -5 21 3 7 0 16 -6 20 -6 4 -8 3 -4 -4 3 -6 1
-14 -4 -17 -7 -5 -5 -12 7 -21 17 -14 16 -15 -6 -8 -17 4 -5 -11 42 -56 90
-84 89 -94 -11 -88 -79 6 -199 49 -217 78 -12 20 -23 90 -16 95 6 3 7 38 2 83
-2 24 -18 12 -36 -28 -10 -22 -21 -37 -25 -35 -4 3 -4 -10 0 -29 4 -19 4 -40
0 -47 -5 -7 -6 -19 -2 -28 10 -29 83 -115 125 -149 23 -19 42 -38 42 -42 0 -5
7 -15 15 -22 12 -11 12 -11 0 6 -8 11 -10 17 -5 14 6 -2 25 -10 43 -17 19 -8
29 -16 24 -20 -6 -3 12 -7 40 -8 28 -1 60 -5 72 -8 15 -5 17 -4 8 3 -11 7 -7
11 13 16 41 10 65 -1 65 -32 0 -15 12 -54 25 -87 14 -33 25 -65 25 -71 0 -6 6
-17 14 -24 18 -14 9 -43 -11 -36 -8 3 -11 2 -8 -3 6 -11 -12 -17 -80 -27 -27
-4 -67 -15 -88 -26 -21 -10 -43 -16 -49 -12 -7 4 -8 3 -4 -4 6 -10 -46 -57
-64 -57 -5 0 -12 -4 -17 -9 -5 -5 -3 -6 5 -2 11 7 12 -1 7 -35 -3 -25 -1 -51
5 -59 9 -13 13 -11 30 10 15 20 21 23 31 13 7 -7 17 -13 23 -13 5 0 1 6 -9 14
-18 13 -16 15 22 34 22 12 43 19 46 16 2 -3 22 2 43 10 154 60 313 82 306 44
-2 -10 2 -18 8 -18 6 0 8 5 5 10 -3 6 -2 10 4 10 17 0 52 -53 49 -76 -5 -35
34 -78 117 -129 91 -57 137 -69 272 -74 37 -1 56 -36 30 -56 -14 -10 -13 -13
6 -25 20 -12 21 -12 9 3 -8 9 -9 18 -3 21 5 4 17 -4 25 -16 21 -29 20 -39 -1
-31 -10 3 -15 3 -11 -1 3 -4 13 -9 21 -10 9 -1 35 -23 59 -48 25 -25 59 -53
78 -63 22 -11 29 -19 21 -25 -9 -5 -8 -9 4 -13 10 -4 14 -3 9 4 -4 8 1 9 17 3
13 -4 34 -8 47 -9 24 0 30 -11 10 -17 -7 -3 -5 -7 6 -11 9 -4 15 -3 12 2 -7
11 110 25 126 15 7 -5 8 -3 3 6 -6 10 -4 12 9 7 9 -4 15 -3 12 2 -10 15 75 51
93 41 35 -21 53 -39 46 -49 -3 -6 0 -9 8 -5 8 3 20 -2 27 -10 18 -23 -14 -33
-35 -12 -9 9 -19 16 -23 16 -4 0 4 -10 16 -22 19 -19 25 -21 42 -10 17 10 25
9 45 -4 14 -9 22 -21 18 -28 -4 -6 1 -4 11 4 10 8 22 25 27 37 7 20 3 28 -23
52 l-32 29 27 -3 c23 -3 26 -1 16 11 -13 16 -23 19 -14 4 3 -5 2 -10 -4 -10
-5 0 -12 6 -14 13 -4 10 -6 10 -6 0 -1 -15 -27 -17 -36 -3 -10 17 6 34 17 19
7 -11 8 -9 6 5 -2 10 -13 25 -25 33 -17 11 -21 12 -19 1 1 -7 5 -19 9 -25 5
-7 4 -13 -2 -13 -6 0 -14 12 -17 26 -5 21 -1 31 21 50 31 26 46 25 24 -3 -9
-11 -10 -14 -2 -9 7 4 18 16 24 28 8 15 8 19 0 14 -17 -11 -13 10 4 24 14 12
20 7 16 -14 -1 -5 5 -4 13 4 17 14 22 25 7 15 -19 -11 -21 15 -3 47 13 22 25
32 38 30 14 -2 16 -1 6 6 -12 8 -11 15 3 42 9 17 14 34 12 37 -3 2 -11 -5 -17
-17 -10 -18 -14 -19 -28 -9 -14 11 -15 11 -4 -1 16 -19 15 -33 -2 -27 -9 4
-13 1 -10 -6 2 -7 -7 -25 -20 -40 -14 -16 -26 -33 -28 -39 -3 -9 -33 -17 -80
-21 -9 -1 -14 -6 -11 -11 4 -6 -1 -6 -13 -2 -14 5 -16 4 -8 -4 9 -9 17 -9 34
0 12 6 25 9 28 5 9 -9 -19 -25 -44 -25 -27 0 -51 54 -60 134 -6 50 -5 54 21
72 15 11 34 26 44 34 20 18 88 40 125 40 14 0 26 6 26 13 -1 26 -48 149 -60
157 -8 5 -27 0 -47 -11 -19 -11 -38 -17 -44 -14 -24 15 9 89 35 79 8 -3 17 -1
21 5 3 7 0 8 -9 5 -23 -9 -20 3 15 45 22 28 31 51 34 85 3 47 35 187 45 196 3
3 14 23 25 45 23 48 113 165 126 165 26 0 3 28 -44 54 -45 26 -75 46 -124 86
-21 17 -27 11 -68 -70z m-1175 -456 c35 -8 74 -14 85 -13 61 4 145 -2 145 -12
0 -6 -10 -8 -22 -5 -13 3 -17 3 -10 0 24 -11 0 -24 -45 -24 -33 0 -44 4 -40
13 3 7 -3 13 -14 13 -13 0 -15 -3 -7 -13 8 -10 6 -13 -5 -13 -9 0 -19 -4 -22
-10 -3 -6 1 -7 9 -4 25 10 20 -26 -7 -50 -34 -31 -83 -33 -114 -4 -38 35 -47
56 -31 76 12 15 11 16 -4 4 -14 -11 -18 -11 -26 5 -15 27 -15 35 0 44 18 12
33 11 108 -7z m1110 10 c0 -4 -20 -38 -43 -78 -24 -39 -54 -107 -68 -150 -22
-75 -26 -80 -64 -97 -22 -10 -53 -20 -68 -23 -49 -9 -120 -56 -180 -119 -46
-48 -60 -58 -68 -47 -5 8 -9 11 -9 5 -1 -15 -24 27 -27 50 -10 62 -82 211
-135 275 -31 39 -37 70 -11 70 9 0 24 7 33 15 37 34 126 46 307 42 96 -2 169
-1 163 3 -7 4 12 15 42 25 29 9 60 21 68 26 17 10 60 12 60 3z m-781 -213 c7
-5 11 -14 7 -20 -4 -7 -1 -9 8 -5 16 6 40 -29 28 -41 -4 -3 -1 -5 7 -3 33 7
136 -199 116 -231 -8 -14 -88 -14 -102 0 -6 6 -17 11 -24 13 -55 9 -148 92
-184 164 -25 50 -28 91 -5 77 6 -4 9 -1 8 6 -3 11 16 19 87 39 41 11 38 11 54
1z m627 -316 c14 -9 23 -29 27 -57 5 -44 18 -80 39 -110 17 -23 -1 -53 -30
-52 -12 0 -19 -3 -16 -7 2 -5 -10 -11 -28 -14 -49 -9 -148 -12 -148 -4 0 3
-18 18 -40 33 -23 15 -38 31 -35 36 3 5 -1 7 -9 4 -16 -6 -42 31 -27 40 5 4
12 0 15 -6 3 -7 3 -3 0 10 -6 25 12 55 28 46 12 -7 49 26 42 37 -8 13 56 41
82 36 13 -2 21 -1 19 4 -3 4 7 10 22 12 16 2 30 5 33 6 3 0 15 -6 26 -14z"/>
<path d="M2749 3878 c-1 -5 -3 -12 -4 -18 -1 -5 -3 -15 -4 -21 0 -5 -5 -7 -11
-4 -5 3 -37 -21 -70 -54 -34 -33 -56 -62 -51 -65 5 -4 14 2 20 11 6 10 11 13
11 6 0 -6 -6 -15 -12 -20 -12 -7 -17 -9 -36 -12 -13 -2 -73 -107 -76 -132 -1
-13 -10 -42 -20 -64 -10 -22 -19 -64 -20 -94 -2 -41 -9 -62 -30 -87 -16 -20
-22 -34 -14 -34 7 1 22 15 33 32 21 33 45 48 45 28 0 -6 -3 -9 -7 -7 -8 5 -27
-11 -32 -27 -1 -5 3 -13 11 -17 11 -7 11 -9 -1 -9 -10 0 -11 -3 -2 -14 9 -11
8 -15 -6 -20 -15 -6 -15 -8 -3 -16 8 -5 16 -20 17 -32 3 -40 26 -118 34 -118
5 0 6 8 3 18 -5 13 -4 14 4 3 8 -11 10 -11 15 0 3 9 6 9 6 2 1 -6 -6 -19 -15
-27 -8 -9 -12 -16 -7 -17 4 0 18 -2 31 -3 12 -2 22 1 22 6 0 5 5 6 12 2 7 -4
8 -3 4 5 -4 6 -11 9 -16 6 -4 -3 -6 5 -2 17 3 14 1 19 -6 14 -8 -5 -10 -2 -6
9 4 8 1 22 -6 30 -7 9 -10 18 -7 22 3 3 0 21 -8 40 -8 19 -12 39 -9 44 3 5 -1
9 -8 9 -11 0 -11 2 0 9 9 5 12 30 11 77 -1 46 5 90 19 133 11 35 18 70 15 79
-4 10 -2 13 5 8 7 -4 12 -2 12 4 0 6 9 23 20 39 12 15 22 37 23 48 0 12 5 20
9 17 7 -5 14 2 69 62 14 16 42 38 62 48 20 10 44 28 54 40 10 12 14 18 9 14
-5 -4 -18 -1 -30 7 -23 17 -40 20 -31 6 3 -5 0 -13 -6 -17 -7 -4 -9 -3 -6 2 3
6 2 16 -4 24 -5 8 -9 12 -10 8z"/>
<path d="M2613 3019 c-6 -6 -19 -12 -29 -13 -11 -2 -17 -7 -15 -12 1 -5 7 -8
12 -6 5 1 8 -4 7 -10 -2 -7 4 -12 12 -10 11 3 10 -1 -3 -16 -14 -15 -15 -22
-6 -28 8 -4 10 -3 5 4 -4 7 -3 12 3 12 5 0 11 -5 13 -11 5 -15 41 -18 58 -5
13 10 13 9 0 -8 -14 -18 -13 -19 9 -13 18 4 21 3 12 -6 -9 -9 -16 -9 -31 1
-11 7 -20 8 -20 3 0 -14 28 -33 40 -26 5 3 10 -1 10 -9 0 -8 14 -24 30 -36 35
-25 37 -34 10 -62 -10 -12 -17 -26 -13 -31 3 -6 1 -7 -6 -3 -7 5 -8 13 -4 20
4 6 -4 -2 -19 -18 -14 -17 -24 -34 -22 -38 3 -4 -1 -5 -9 -2 -8 3 -18 0 -23
-7 -5 -8 -3 -10 6 -4 9 5 11 4 6 -3 -4 -7 -13 -12 -20 -12 -16 0 -59 -58 -51
-70 3 -5 0 -12 -6 -16 -7 -4 -9 -3 -6 4 5 6 0 8 -13 5 -18 -5 -19 -7 -5 -17
15 -11 14 -14 -4 -30 -12 -11 -21 -25 -21 -31 0 -7 -10 -20 -22 -29 -22 -16
-22 -16 -1 -6 16 7 22 6 27 -6 3 -8 2 -12 -4 -9 -5 3 -14 -3 -19 -14 -15 -26
-14 -35 2 -25 7 5 6 2 -3 -6 -8 -9 -16 -20 -16 -25 -1 -6 -5 -20 -9 -32 -4
-14 -2 -23 4 -23 6 0 11 -5 11 -11 0 -5 -4 -8 -9 -5 -5 3 -9 -23 -9 -59 0 -41
4 -63 10 -59 7 5 7 1 1 -10 -5 -9 -7 -31 -5 -48 5 -31 5 -31 17 -8 12 22 12
22 11 -8 0 -16 -5 -28 -9 -25 -7 4 1 -47 9 -56 9 -10 34 24 29 38 -5 13 -4 13
6 4 15 -15 21 -46 8 -37 -11 6 -39 -13 -39 -28 0 -5 5 -6 12 -2 7 4 8 3 4 -5
-7 -11 13 -52 41 -79 7 -8 11 -17 8 -22 -7 -11 22 -33 35 -25 5 3 10 1 10 -5
0 -6 4 -9 9 -6 5 4 7 -3 4 -14 -3 -12 0 -20 6 -20 7 0 9 -5 5 -12 -4 -7 -3 -8
4 -4 7 4 12 2 12 -4 0 -6 5 -8 12 -4 6 4 8 3 5 -2 -9 -16 9 -38 24 -28 17 10
59 12 65 2 3 -5 2 -8 -3 -7 -21 4 -24 -2 -12 -18 12 -16 12 -17 -2 -6 -9 7
-20 9 -24 5 -5 -4 -5 -2 -1 5 3 6 2 14 -3 17 -5 3 -11 -1 -15 -9 -3 -8 -2 -15
3 -15 4 0 21 -11 37 -25 16 -14 32 -26 37 -26 4 -1 10 -2 15 -3 4 -1 20 -10
35 -20 22 -15 31 -16 40 -7 9 10 8 11 -8 6 -16 -5 -17 -5 -5 3 9 7 18 7 26 1
6 -5 20 -7 30 -3 18 5 18 5 1 -6 -9 -6 -22 -8 -27 -5 -6 3 -10 1 -10 -4 0 -6
7 -11 15 -11 8 0 15 -5 15 -11 0 -8 -19 -9 -67 -3 -104 14 -2440 3 -2496 -11
-17 -5 -27 -14 -27 -26 0 -28 61 -33 445 -34 429 0 4258 0 4735 0 385 1 460 6
460 34 0 24 -32 29 -245 36 -308 10 -2365 14 -2365 4 0 -5 -14 -9 -31 -9 -20
0 -29 4 -26 13 2 6 10 11 16 10 6 -2 11 2 11 8 0 5 4 7 10 4 6 -3 7 1 4 9 -5
12 1 14 26 11 21 -2 37 2 50 15 10 10 21 16 23 13 3 -2 22 13 43 34 21 21 34
31 30 23 -5 -8 12 5 37 30 26 26 42 51 39 59 -3 9 -1 12 6 7 7 -4 20 6 32 26
24 41 25 51 4 54 -12 2 -15 -3 -12 -21 4 -17 1 -22 -10 -17 -11 4 -14 0 -10
-14 4 -14 0 -20 -13 -20 -10 0 -16 4 -13 7 2 4 1 10 -4 13 -10 6 -79 -51 -71
-59 3 -3 18 4 32 15 27 21 43 15 26 -10 -6 -11 -9 -12 -9 -2 0 7 -5 10 -10 7
-8 -5 -8 -11 0 -20 8 -9 8 -15 0 -20 -5 -3 -10 -3 -10 1 0 4 -9 -1 -19 -10
-19 -17 -19 -17 -17 8 3 28 -5 33 -22 13 -13 -16 -8 -53 6 -50 7 2 9 -4 5 -13
-5 -15 -7 -15 -15 0 -5 9 -14 14 -19 11 -5 -4 -7 -10 -4 -15 5 -8 -45 -3 -53
5 -2 2 -20 -5 -40 -15 -21 -11 -50 -24 -65 -29 -16 -6 -25 -15 -22 -21 3 -5 1
-10 -4 -10 -6 0 -11 4 -11 9 0 9 -72 4 -100 -6 -8 -4 -17 -6 -20 -6 -84 8
-132 15 -160 23 -43 12 -43 12 -35 0 3 -5 -1 -10 -9 -10 -9 0 -13 6 -10 14 6
16 -29 31 -48 20 -7 -4 -10 -4 -6 1 5 5 -6 17 -23 27 -26 16 -34 17 -47 6 -15
-12 -15 -11 -4 4 11 14 10 18 -8 28 -11 6 -25 8 -30 5 -6 -3 -7 1 -4 9 7 17
-11 22 -19 6 -3 -6 -4 -5 -3 2 2 7 -23 45 -56 85 -32 39 -58 76 -58 82 0 6 -5
11 -11 11 -5 0 -7 5 -4 10 3 6 -2 10 -12 11 -11 0 -13 3 -5 6 6 2 9 10 5 16
-9 14 -9 13 -27 110 -7 43 -11 87 -8 99 3 14 1 19 -6 14 -7 -4 -12 -2 -12 3 0
6 5 11 10 11 6 0 10 11 10 24 0 14 -4 28 -10 31 -14 8 -13 26 1 23 18 -4 40
87 25 103 -8 9 -7 11 6 6 12 -4 15 0 13 18 -1 14 1 22 6 20 4 -3 10 -1 13 4
14 22 -24 18 -38 -5 -9 -13 -22 -24 -29 -23 -9 0 -9 2 0 5 7 3 9 13 6 22 -4
13 -3 14 5 3 7 -10 13 -6 23 18 8 17 18 30 24 30 43 -5 47 0 24 33 -18 24 -19
30 -7 25 9 -3 19 -1 22 6 3 7 3 0 0 -15 -8 -38 9 -35 38 5 12 17 33 40 46 51
13 10 21 24 18 32 -7 17 10 28 20 13 5 -8 3 -9 -6 -4 -9 6 -11 4 -5 -5 6 -10
11 -10 20 3 7 9 15 14 19 10 4 -4 4 0 0 10 -5 13 -2 16 10 11 9 -3 16 -1 16 5
0 6 3 10 8 10 19 -3 33 3 53 24 12 12 19 16 15 10 -5 -9 -2 -11 8 -7 9 3 16
10 16 16 0 5 -4 7 -9 3 -5 -3 -13 0 -16 5 -6 10 -38 26 -57 29 -5 0 -17 10
-28 21 -11 11 -27 20 -36 20 -8 0 -12 5 -9 10 3 6 2 10 -3 10 -8 0 -35 26 -94
90 -13 14 -22 28 -20 33 3 10 -2 9 -15 -4z"/>
<path d="M3478 2729 c-10 -5 -18 -18 -18 -27 0 -13 5 -12 20 8 10 14 22 21 26
17 4 -4 2 -7 -5 -7 -8 0 -10 -8 -6 -22 5 -19 4 -20 -5 -8 -9 13 -10 12 -7 -5
2 -11 9 -19 15 -17 7 1 12 -2 12 -8 0 -16 72 -105 83 -102 5 2 7 -4 4 -13 -4
-8 -2 -15 4 -15 6 0 7 -4 4 -10 -3 -5 -1 -10 5 -10 6 0 9 -4 5 -9 -3 -5 0 -13
6 -17 8 -5 9 -3 4 6 -6 9 -4 11 4 5 8 -4 9 -11 3 -17 -6 -6 -4 -25 5 -51 8
-23 17 -55 19 -72 7 -46 7 -158 1 -175 -14 -39 -16 -69 -5 -76 8 -5 9 -2 4 12
-4 10 -4 15 0 11 4 -4 15 0 24 8 14 13 16 12 16 -4 0 -10 -5 -17 -12 -14 -6 2
-14 -3 -17 -11 -4 -9 -13 -13 -21 -10 -10 4 -16 -4 -21 -24 -3 -17 -21 -55
-40 -86 -26 -44 -30 -57 -20 -66 9 -8 15 -6 20 7 5 10 8 21 7 24 -3 14 36 40
43 30 3 -6 11 -11 16 -11 6 0 7 5 4 10 -3 6 -2 10 3 10 16 0 24 32 11 44 -9 8
-10 6 -6 -7 4 -11 3 -16 -3 -12 -6 3 -7 18 -4 33 7 30 34 65 34 44 0 -7 -4
-12 -10 -12 -5 0 -10 -9 -10 -20 0 -11 5 -20 11 -20 5 0 7 5 4 10 -3 6 -2 10
3 10 6 0 13 15 16 33 3 17 9 43 12 57 3 14 7 53 8 87 3 52 1 61 -13 56 -13 -3
-12 -2 2 7 9 6 17 19 17 28 0 15 -2 15 -11 2 -8 -12 -9 -8 -6 14 3 20 -1 35
-12 45 -9 9 -11 12 -4 7 8 -5 13 -4 13 3 0 6 10 16 23 22 19 8 19 9 2 6 -21
-4 -52 19 -41 30 3 3 1 12 -5 20 -6 7 -8 13 -3 13 4 0 -1 7 -12 16 -10 8 -13
12 -5 9 9 -5 8 1 -4 19 -10 14 -21 26 -26 26 -5 0 -9 5 -9 11 0 5 5 7 12 3 7
-4 8 -3 4 4 -7 12 -33 12 -53 -1 -6 -4 -15 -2 -18 4 -8 12 10 34 27 34 6 0 13
6 16 14 3 8 0 11 -5 8 -5 -3 -15 -2 -23 4 -10 6 -11 9 -3 9 9 0 7 7 -4 20 -23
27 -48 27 -34 1 8 -14 7 -22 -4 -31 -8 -7 -15 -11 -16 -9 -6 31 -6 38 2 33 14
-8 11 8 -6 26 -13 14 -13 17 0 17 8 0 11 -5 8 -10 -4 -6 -1 -7 6 -2 9 5 7 12
-8 26 -23 22 -29 22 -53 8z"/>
<path d="M510 1455 c0 -72 -3 -88 -20 -105 -11 -11 -22 -20 -25 -20 -3 0 -19
-10 -35 -22 -33 -24 -37 -40 -17 -56 15 -13 64 8 85 35 10 14 12 -4 12 -100
l0 -117 35 0 35 0 0 235 0 235 -35 0 -35 0 0 -85z"/>
<path d="M640 1305 l0 -235 35 0 35 0 0 187 c0 180 1 186 18 170 10 -10 22
-14 25 -10 4 3 7 1 7 -6 0 -7 5 -9 10 -6 6 3 10 -1 10 -10 0 -22 19 -15 38 13
13 20 12 22 -12 32 -14 5 -26 13 -26 18 0 12 -108 82 -126 82 -12 0 -14 -41
-14 -235z"/>
<path d="M860 1306 l0 -236 35 0 35 0 0 55 c0 54 6 62 43 56 10 -2 84 46 92
60 4 6 9 36 12 68 3 46 0 60 -17 81 -12 14 -19 18 -15 10 4 -10 2 -10 -8 2
-13 16 -94 41 -106 33 -4 -2 -6 20 -6 48 0 51 0 52 -32 55 l-33 3 0 -235z"/>
<path d="M1140 1306 l0 -236 35 0 35 0 -2 233 -3 232 -32 3 -33 3 0 -235z"/>
<path d="M1288 1305 l3 -235 29 0 30 0 0 118 c1 94 3 114 13 102 14 -18 58
-50 69 -50 4 0 12 9 17 19 9 15 5 25 -21 50 -18 17 -43 36 -57 42 -25 11 -26
13 -23 100 l3 89 -33 0 -33 0 3 -235z"/>
<path d="M1487 1533 c-4 -3 -7 -109 -7 -235 l0 -228 35 0 35 0 0 109 c0 104 1
109 23 116 12 4 25 7 30 6 4 -1 7 4 7 9 0 6 6 10 14 10 14 0 86 77 84 89 -1 3
3 22 9 41 17 58 11 85 -20 88 -15 2 -27 0 -28 -5 -1 -10 -6 -72 -8 -96 -1 -10
-5 -15 -11 -12 -5 3 -10 -3 -10 -15 0 -12 -4 -18 -10 -15 -5 3 -10 3 -10 -2 0
-12 -60 -37 -68 -28 -4 4 -6 44 -4 91 l3 84 -29 0 c-16 0 -32 -3 -35 -7z"/>
<path d="M2290 1455 c0 -72 -3 -88 -20 -105 -11 -11 -23 -20 -26 -20 -3 0 -21
-12 -40 -26 -32 -25 -33 -28 -19 -44 19 -21 45 -16 80 16 l25 23 0 -114 0
-115 35 0 35 0 0 235 0 235 -35 0 -35 0 0 -85z"/>
<path d="M2410 1383 c0 -152 1 -159 20 -159 11 0 20 4 20 8 0 4 6 8 14 8 8 0
28 14 46 30 18 17 34 30 36 30 2 0 4 -52 4 -115 l0 -115 35 0 35 0 -2 162 c-3
142 -5 163 -20 166 -9 2 -28 -9 -42 -23 -14 -14 -26 -23 -26 -19 0 3 -11 -1
-25 -10 l-24 -16 -3 102 -3 103 -32 3 -33 3 0 -158z"/>
<path d="M2760 1455 c0 -72 -3 -88 -20 -105 -11 -11 -23 -20 -26 -20 -3 0 -21
-12 -40 -26 -32 -25 -33 -28 -19 -44 19 -21 45 -16 80 16 l25 23 0 -114 0
-115 35 0 35 0 0 235 0 235 -35 0 -35 0 0 -85z"/>
<path d="M2980 1520 c-13 -11 -26 -20 -30 -20 -4 0 -20 -12 -36 -27 -16 -15
-32 -28 -36 -28 -8 0 -8 -7 0 -37 6 -23 9 -23 48 7 18 14 37 25 43 25 8 0 11
-61 11 -185 l0 -185 35 0 35 0 0 186 0 186 44 -26 c38 -22 46 -24 56 -11 6 8
10 19 8 24 -5 15 -129 111 -143 111 -6 0 -22 -9 -35 -20z"/>
<path d="M3190 1306 l0 -236 35 0 35 0 0 81 c0 65 2 78 13 67 20 -22 87 -127
87 -138 0 -5 20 -10 45 -10 25 0 45 5 45 10 0 6 -4 10 -10 10 -5 0 -10 7 -10
15 0 8 -4 15 -10 15 -5 0 -10 7 -10 15 0 9 -7 18 -15 21 -8 4 -12 10 -9 15 3
5 -2 12 -10 15 -9 3 -13 10 -10 15 3 5 0 9 -5 9 -6 0 -11 6 -11 14 0 7 -7 19
-15 26 -19 16 -20 34 -1 27 8 -3 20 1 26 9 7 8 19 14 26 14 29 0 48 92 30 144
-10 30 -66 90 -66 71 0 -4 -6 -3 -12 3 -7 6 -43 13 -80 17 l-68 7 0 -236z"/>
<path d="M3480 1305 l0 -235 30 0 30 0 0 198 c0 109 3 202 7 205 13 14 93 -52
93 -76 0 -7 6 -19 13 -25 8 -9 13 -59 15 -157 l4 -145 29 0 30 0 -2 152 c-1
140 -8 195 -28 208 -4 3 -14 18 -22 34 -20 42 -69 67 -139 72 l-60 5 0 -236z"/>
<path d="M4190 1503 c0 -21 5 -56 11 -78 11 -42 63 -105 86 -105 10 0 13 -29
13 -125 l0 -125 30 0 30 0 0 125 c0 112 2 125 18 125 22 1 67 47 83 85 6 17
13 54 16 83 4 52 4 52 -25 52 -28 0 -30 -3 -36 -52 -4 -29 -7 -57 -8 -63 -1
-5 -10 -18 -20 -27 -17 -17 -18 -15 -18 63 l0 80 -32 -3 -33 -3 -3 -77 c-2
-44 -7 -78 -13 -78 -6 0 -8 4 -5 9 3 4 -3 16 -14 26 -11 10 -17 21 -15 26 3 4
1 10 -4 13 -4 3 -6 24 -4 46 5 39 4 40 -26 40 -29 0 -31 -2 -31 -37z"/>
<path d="M4600 1455 c0 -72 -3 -88 -20 -105 -11 -11 -23 -20 -26 -20 -3 0 -21
-12 -40 -26 -32 -25 -33 -28 -19 -44 19 -21 45 -16 80 16 l25 23 0 -114 0
-115 35 0 35 0 0 235 0 235 -35 0 -35 0 0 -85z"/>
<path d="M4750 1306 l0 -236 35 0 35 0 -2 233 -3 232 -32 3 -33 3 0 -235z"/>
<path d="M4980 1463 l0 -77 -38 37 c-37 37 -39 37 -56 18 -16 -18 -15 -21 39
-77 l56 -59 -56 -54 c-44 -42 -53 -56 -44 -67 17 -21 30 -17 66 18 l33 32 0
-82 0 -82 35 0 35 0 0 82 0 82 33 -32 c38 -37 45 -38 62 -15 11 14 5 24 -41
69 l-54 52 50 53 c27 29 50 54 50 56 0 2 -6 12 -12 23 -12 19 -14 18 -50 -17
l-38 -37 0 77 0 77 -35 0 -35 0 0 -77z"/>
<path d="M5210 1306 l0 -236 35 0 35 0 -2 233 -3 232 -32 3 -33 3 0 -235z"/>
<path d="M5337 1533 c-4 -3 -7 -109 -7 -235 l0 -228 35 0 35 0 0 109 0 109 38
13 c40 13 112 81 113 108 0 9 3 42 5 74 l5 57 -30 0 c-29 0 -30 -1 -29 -49 0
-34 -7 -59 -24 -84 -19 -30 -54 -57 -73 -57 -3 0 -5 43 -5 95 l0 95 -28 0
c-16 0 -32 -3 -35 -7z"/>
<path d="M5600 1305 l0 -235 30 0 30 0 0 198 c0 109 3 202 7 205 13 14 93 -52
93 -76 0 -7 6 -19 13 -25 8 -9 13 -59 15 -157 l4 -145 29 0 30 0 -2 152 c-1
140 -8 195 -28 208 -4 3 -14 18 -22 34 -20 42 -69 67 -139 72 l-60 5 0 -236z"/>
<path d="M2120 1044 c-8 -2 -413 -5 -900 -8 -487 -2 -897 -7 -912 -11 -18 -5
-28 -14 -28 -26 0 -28 61 -33 445 -34 429 0 4258 0 4735 0 385 1 460 6 460 34
0 24 -32 29 -245 36 -308 10 -2365 14 -2365 4 0 -5 -13 -9 -30 -9 -16 0 -30 4
-30 9 0 13 -373 12 -382 -2 -4 -7 -30 -7 -90 1 -75 11 -619 16 -658 6z"/>
</g>
</svg>
