<?xml version="1.0" standalone="no"?>
<!DOCTYPE svg PUBLIC "-//W3C//DTD SVG 20010904//EN"
 "http://www.w3.org/TR/2001/REC-SVG-20010904/DTD/svg10.dtd">
<svg version="1.0" xmlns="http://www.w3.org/2000/svg"
 width="172.000000pt" height="234.000000pt" viewBox="0 0 172.000000 234.000000"
 preserveAspectRatio="xMidYMid meet">
<metadata>
Created by potrace 1.16, written by Peter Selinger 2001-2019
</metadata>
<g transform="translate(0.000000,234.000000) scale(0.100000,-0.100000)"
fill="#000000" stroke="none">
<path d="M805 1846 c-45 -20 -67 -50 -72 -100 -4 -35 -1 -53 16 -78 19 -30 27
-27 22 10 -3 17 46 92 59 92 6 0 10 11 10 24 0 33 23 50 49 36 17 -8 21 -20
21 -57 0 -26 -6 -54 -14 -62 -20 -23 -30 -61 -16 -61 6 0 9 -4 5 -9 -6 -11
-45 -10 -45 1 0 4 4 8 8 8 4 0 8 10 9 23 0 12 -1 16 -4 10 -3 -7 -10 -13 -17
-13 -7 0 -21 -9 -32 -21 -17 -19 -18 -21 -1 -30 16 -10 25 -59 10 -59 -5 0
-21 -12 -38 -26 -16 -14 -24 -22 -16 -18 11 5 13 3 8 -9 -3 -9 0 -22 7 -29 7
-7 11 -19 8 -27 -3 -8 0 -11 5 -8 17 10 47 -18 40 -37 -4 -10 -11 -14 -17 -11
-5 3 -10 1 -10 -6 0 -8 -4 -8 -15 1 -8 7 -15 16 -15 21 0 5 7 6 15 3 22 -9 18
4 -10 30 -14 13 -25 32 -25 42 0 16 -2 17 -10 4 -28 -43 0 -129 50 -155 42
-22 40 -51 -5 -59 -23 -5 -53 -23 -82 -52 -53 -50 -73 -55 -73 -19 0 35 -24
79 -52 97 -27 17 -93 35 -68 18 8 -5 22 -10 31 -10 9 0 21 -11 27 -25 6 -14 8
-25 4 -25 -8 0 -7 -60 3 -111 5 -29 3 -38 -10 -43 -9 -3 -21 -4 -26 -1 -5 3
-18 1 -29 -5 -13 -7 -20 -7 -20 0 0 5 -4 10 -8 10 -5 0 -9 -7 -9 -16 0 -24 81
-13 111 15 36 34 51 20 52 -49 0 -70 -12 -78 -65 -43 -39 27 -68 29 -116 9
-38 -16 -60 -46 -70 -96 -4 -19 -19 -45 -34 -57 -24 -20 -25 -23 -10 -38 11
-12 22 -13 40 -7 18 7 31 5 51 -10 40 -28 89 -33 127 -14 38 20 71 70 71 109
0 43 26 44 67 4 20 -20 55 -44 79 -53 54 -21 57 -44 10 -73 -18 -12 -39 -35
-46 -51 -25 -61 7 -148 62 -166 22 -7 26 -64 4 -64 -8 0 -28 -16 -45 -35 -57
-66 -34 -161 49 -195 82 -34 170 40 160 135 -4 37 -32 77 -61 88 -40 16 -40
56 0 79 84 47 84 170 0 214 -46 23 -37 47 26 73 33 14 67 37 84 58 38 46 66
39 75 -16 4 -27 16 -48 37 -65 52 -44 103 -46 159 -6 16 11 35 16 53 13 38 -7
49 23 16 49 -13 11 -25 33 -27 51 -11 95 -137 141 -201 73 -14 -15 -30 -22
-42 -19 -16 4 -19 14 -19 59 0 30 0 57 -1 62 -1 16 34 13 53 -5 31 -28 162
-24 134 5 -4 4 -31 6 -59 5 -41 -1 -49 1 -36 10 9 7 14 18 11 25 -2 7 1 19 8
26 8 11 8 16 -1 22 -7 4 -9 3 -5 -4 3 -6 2 -13 -4 -17 -5 -3 -10 0 -11 7 -1 7
-3 35 -5 62 -3 28 0 54 7 62 9 11 8 14 -4 14 -28 0 -77 -59 -83 -102 -9 -54
-28 -58 -73 -14 -21 21 -56 43 -77 51 -49 17 -55 39 -15 60 42 21 62 55 63
104 0 47 -22 86 -63 109 -33 19 -41 62 -11 62 28 1 73 74 74 120 1 88 -90 151
-167 116z m94 -681 c36 -109 36 -110 69 -113 27 -3 36 -10 48 -37 8 -19 14
-40 14 -47 0 -7 -39 -26 -90 -44 l-90 -30 -90 30 c-51 18 -90 37 -90 44 0 7 7
28 14 47 12 29 20 35 44 35 39 0 45 9 76 115 15 50 29 96 32 103 10 31 29 0
63 -103z m377 -170 c16 -17 33 -38 37 -47 8 -23 -41 -98 -59 -91 -10 4 -11 10
-3 24 7 14 6 19 -4 19 -9 0 -13 -9 -12 -25 3 -19 -2 -26 -20 -31 -35 -9 -59
-1 -63 20 -2 11 -10 26 -18 34 -16 15 -17 31 -5 50 6 10 10 9 14 -7 5 -21 27
-30 27 -11 0 6 -3 10 -8 10 -4 0 -13 9 -20 21 -11 17 -11 24 2 44 23 34 91 29
132 -10z m-749 10 c0 -8 -4 -12 -9 -9 -11 7 -10 -20 1 -31 5 -6 7 -22 4 -38
-5 -24 -7 -26 -18 -11 -10 15 -12 15 -12 1 0 -23 27 -30 33 -9 18 54 28 72 45
77 27 9 39 -2 39 -36 0 -24 -4 -29 -25 -29 -25 0 -25 0 -10 -30 10 -19 13 -36
7 -46 -7 -12 -11 -10 -22 11 -7 14 -17 25 -22 25 -13 0 -10 -12 10 -33 9 -11
11 -17 5 -13 -8 4 -13 2 -13 -7 0 -7 -7 -14 -15 -14 -20 0 -19 7 3 24 9 8 11
12 5 8 -20 -10 -38 5 -22 17 11 8 10 9 -3 4 -10 -3 -18 1 -21 12 -3 12 -5 11
-6 -5 0 -12 4 -25 9 -28 6 -3 10 -14 9 -23 0 -12 -3 -11 -9 6 -5 12 -12 22
-15 22 -4 0 -3 -10 0 -22 5 -18 4 -20 -4 -8 -6 8 -8 24 -5 35 4 17 2 16 -15
-5 -28 -34 -26 -9 2 40 24 43 17 73 -17 76 -13 2 -13 1 -1 -3 8 -2 13 -9 10
-14 -4 -5 -1 -9 4 -9 6 0 11 -4 11 -10 0 -5 -11 -10 -25 -10 -21 0 -25 5 -25
31 0 29 2 31 30 27 23 -4 33 1 45 19 17 26 42 31 42 8z m368 -219 c28 -12 65
-54 56 -64 -1 -1 0 -15 4 -31 14 -63 -54 -129 -119 -117 -40 8 -84 52 -92 93
-8 42 19 97 59 117 40 19 49 20 92 2z m-8 -298 c33 -12 39 -28 13 -36 -7 -3
-10 0 -6 7 4 6 1 11 -8 11 -9 0 -16 -4 -16 -10 0 -5 5 -10 10 -10 6 0 10 -7
10 -15 0 -9 12 -20 26 -26 31 -11 25 -23 -13 -24 -35 0 -39 -18 -11 -45 l23
-22 -50 7 c-27 3 -54 10 -59 15 -5 5 -14 6 -21 3 -17 -6 -14 22 4 40 10 9 11
8 6 -5 -5 -13 -2 -18 9 -18 12 0 14 5 6 25 -10 27 -3 82 13 103 12 15 22 15
64 0z"/>
<path d="M1180 1340 c0 -6 5 -8 10 -5 13 8 42 -14 35 -26 -3 -4 -13 -5 -23 -2
-9 3 -5 -4 11 -16 15 -12 27 -29 27 -37 0 -8 7 -17 15 -20 18 -7 20 -55 3 -72
-9 -9 -9 -15 0 -24 19 -19 52 21 59 69 4 31 11 44 30 52 37 17 26 46 -18 46
-19 0 -46 7 -60 16 -33 22 -89 34 -89 19z"/>
<path d="M434 1296 c-28 -23 -34 -24 -63 -13 -27 10 -33 9 -41 -3 -13 -21 -8
-33 23 -48 18 -9 28 -24 33 -47 6 -35 38 -85 54 -85 4 0 7 21 5 46 -2 38 2 48
21 61 18 12 21 17 11 28 -9 9 -14 10 -19 2 -15 -25 -17 2 -2 31 23 47 13 58
-22 28z"/>
<path d="M366 1008 c-8 -13 -18 -36 -22 -51 -3 -16 -17 -39 -30 -52 -49 -49
-17 -129 49 -124 18 2 47 -5 65 -14 42 -23 41 -31 -2 -13 -20 8 -39 10 -47 5
-24 -15 -65 -10 -89 11 -27 24 -31 25 -24 6 4 -11 -2 -13 -28 -9 -45 7 -56 18
-50 50 3 18 1 24 -7 19 -14 -9 -14 -47 2 -66 22 -29 60 -50 81 -44 17 4 23 -2
32 -31 10 -31 9 -37 -5 -41 -38 -12 -66 -31 -70 -49 -3 -16 -1 -17 11 -7 9 7
37 19 63 27 51 15 85 7 85 -19 0 -17 40 -44 76 -50 15 -3 42 -22 61 -42 32
-35 36 -36 82 -31 70 8 85 -6 86 -80 1 -71 28 -120 80 -149 19 -10 35 -22 35
-26 0 -5 23 -8 50 -8 28 0 50 5 50 10 0 6 6 10 14 10 7 0 19 7 26 15 11 14 9
14 -16 0 -16 -8 -50 -15 -75 -15 -61 0 -107 31 -138 94 -22 44 -23 53 -13 95
9 32 24 57 51 81 l39 36 -30 17 c-40 23 -72 97 -63 146 4 20 16 51 28 70 11
19 15 31 8 27 -17 -11 -51 -85 -51 -111 0 -42 22 -95 51 -125 l31 -31 -25 -20
c-14 -11 -29 -29 -32 -40 -6 -19 -7 -19 -27 6 -16 21 -18 28 -8 40 11 13 9 15
-11 13 -19 -2 -25 2 -27 23 -2 21 3 29 26 38 22 9 28 17 25 32 -3 12 -11 18
-19 15 -15 -6 -20 19 -5 28 4 3 11 23 15 44 3 22 15 51 27 66 11 15 18 33 15
41 -6 17 9 21 19 5 3 -5 14 -10 23 -10 11 1 6 7 -13 17 -16 8 -42 26 -56 40
l-26 24 -6 -29 c-3 -16 -18 -44 -34 -63 -23 -29 -24 -31 -4 -14 13 11 31 32
41 47 15 26 18 27 36 12 19 -15 19 -15 -1 -10 -15 4 -25 -4 -40 -27 -33 -51
-80 -77 -139 -76 l-51 2 52 6 c29 4 58 13 65 20 11 11 9 12 -9 2 -32 -16 -103
-13 -138 5 -16 9 -45 16 -64 15 -67 -4 -97 67 -46 107 14 11 25 28 25 39 0 10
9 35 20 56 22 40 19 50 -4 15z"/>
<path d="M1022 883 c-17 -17 -45 -37 -61 -44 l-29 -13 24 -18 c12 -10 29 -34
35 -53 7 -19 17 -35 21 -35 12 0 -11 53 -35 79 -21 23 -21 24 -3 35 10 6 31
21 45 33 l27 22 18 -33 c24 -45 90 -86 140 -86 28 0 37 -3 29 -11 -21 -21
-103 11 -150 58 l-44 44 -30 -18 c-16 -10 -28 -20 -26 -23 2 -3 16 -32 31 -65
15 -33 37 -70 49 -82 23 -26 15 -43 -13 -26 -16 11 -20 8 -29 -18 -12 -35 -66
-101 -75 -92 -3 4 3 13 14 20 11 8 28 29 37 46 20 38 34 107 22 107 -5 0 -9
-11 -9 -25 0 -40 -24 -88 -59 -118 l-32 -26 27 -18 c15 -9 38 -40 51 -68 17
-35 22 -41 18 -20 -4 17 -18 45 -33 64 -19 25 -21 33 -9 28 12 -5 18 0 23 18
3 14 10 23 14 20 4 -3 7 3 6 11 0 9 7 18 18 20 28 4 68 -17 61 -34 -3 -7 -5
-20 -5 -28 0 -8 -7 -14 -15 -14 -8 0 -12 -6 -9 -13 2 -7 -7 -19 -21 -27 -14
-7 -25 -17 -25 -22 0 -13 27 -9 40 7 9 11 25 13 64 9 52 -6 53 -6 88 35 27 32
42 41 66 41 17 0 37 7 44 16 42 52 60 65 76 58 9 -4 31 -9 47 -11 17 -3 36
-12 43 -21 11 -14 12 -14 12 1 0 19 -37 47 -62 47 -21 0 -22 6 -8 47 9 24 19
32 61 42 46 12 69 32 69 62 0 8 -9 4 -22 -8 -23 -21 -78 -39 -78 -26 0 3 7 15
17 25 24 27 11 22 -32 -12 -31 -24 -45 -29 -74 -26 -20 3 -38 5 -41 6 -3 1
-17 1 -32 0 -49 -3 -52 11 -9 37 51 30 54 40 4 13 -90 -48 -194 -10 -226 82
l-12 33 -33 -32z"/>
</g>
</svg>
